STARTFONT 2.1
COMMENT
COMMENT Converted from OpenType font "Q:\font stuff\winfont\TeutonNormal.otf" by "otf2bdf 3.0".
COMMENT
FONT -FreeType-Teuton Normal-Medium-R-Normal--36-360-72-72-P-129-ISO10646-1
SIZE 36 72 72
FONTBOUNDINGBOX 33 39 -2 -8
STARTPROPERTIES 19
FOUNDRY "FreeType"
FAMILY_NAME "Teuton Normal"
WEIGHT_NAME "Medium"
SLANT "R"
SETWIDTH_NAME "Normal"
ADD_STYLE_NAME ""
PIXEL_SIZE 36
POINT_SIZE 360
RESOLUTION_X 72
RESOLUTION_Y 72
SPACING "P"
AVERAGE_WIDTH 129
CHARSET_REGISTRY "ISO10646"
CHARSET_ENCODING "1"
FONT_ASCENT 30
FONT_DESCENT 8
COPYRIGHT "Copyright Copr. 2001, Frantisek Storm, www.stormtype.com. All rights reserved."
_OTF_FONTFILE "Q:\font stuff\winfont\TeutonNormal.otf"
_OTF_PSNAME "TeutonNormal"
ENDPROPERTIES
CHARS 356
STARTCHAR 0020
ENCODING 32
SWIDTH 250 0
DWIDTH 9 0
BBX 0 0 0 0
BITMAP
ENDCHAR
STARTCHAR 0021
ENCODING 33
SWIDTH 222 0
DWIDTH 8 0
BBX 3 25 2 1
BITMAP
E0
E0
E0
E0
E0
E0
E0
E0
E0
E0
E0
E0
E0
E0
E0
E0
E0
E0
E0
00
00
E0
E0
E0
E0
ENDCHAR
STARTCHAR 0022
ENCODING 34
SWIDTH 305 0
DWIDTH 11 0
BBX 7 6 2 18
BITMAP
EE
EE
EE
CE
CE
C6
ENDCHAR
STARTCHAR 0023
ENCODING 35
SWIDTH 527 0
DWIDTH 19 0
BBX 17 25 1 1
BITMAP
070700
070700
070700
070700
0F0F00
0E0E00
0E0E00
3FFF80
3FFF80
3FFF80
1E1E00
1C1C00
1C1C00
1C1C00
1C1C00
3C3C00
FFFE00
FFFE00
FFFE00
383800
383800
787800
707000
707000
707000
ENDCHAR
STARTCHAR 0024
ENCODING 36
SWIDTH 416 0
DWIDTH 15 0
BBX 11 25 2 1
BITMAP
0C00
0C00
0C00
7FE0
FFE0
FFE0
E000
E000
E000
F800
7E00
1F00
0FC0
03E0
00E0
00E0
00E0
00E0
FFE0
FFE0
FFC0
0C00
0C00
0C00
0C00
ENDCHAR
STARTCHAR 0025
ENCODING 37
SWIDTH 638 0
DWIDTH 23 0
BBX 19 25 2 0
BITMAP
7C0380
FE0780
EE0700
C60F00
C60E00
C61E00
C61C00
C63800
C63800
C67000
FE7000
7CE000
00E000
01CFC0
01DFE0
039860
039860
071860
071860
0E1860
0E1860
1C1860
1C1FE0
381FE0
380FC0
ENDCHAR
STARTCHAR 0026
ENCODING 38
SWIDTH 666 0
DWIDTH 24 0
BBX 20 25 2 0
BITMAP
3FF800
7FF800
FFF800
F00000
F00000
F00000
F00000
F00100
F00300
7FFFF0
1FFFF0
7FFFF0
F00700
F00700
F00700
F00700
F00700
F00700
F00700
F00700
F00700
F00700
FFE7F0
7FE7F0
3FE3F0
ENDCHAR
STARTCHAR 0027
ENCODING 39
SWIDTH 194 0
DWIDTH 7 0
BBX 2 6 2 19
BITMAP
C0
C0
C0
C0
C0
C0
ENDCHAR
STARTCHAR 0028
ENCODING 40
SWIDTH 305 0
DWIDTH 11 0
BBX 7 32 3 -7
BITMAP
1E
3E
7E
F0
E0
E0
E0
E0
E0
E0
E0
E0
E0
E0
E0
E0
E0
E0
E0
E0
E0
E0
E0
E0
E0
E0
E0
E0
F0
7E
7E
1E
ENDCHAR
STARTCHAR 0029
ENCODING 41
SWIDTH 305 0
DWIDTH 11 0
BBX 7 32 1 -7
BITMAP
F0
FC
FC
1E
0E
0E
0E
0E
0E
0E
0E
0E
0E
0E
0E
0E
0E
0E
0E
0E
0E
0E
0E
0E
0E
0E
0E
0E
1E
FC
FC
F0
ENDCHAR
STARTCHAR 002A
ENCODING 42
SWIDTH 444 0
DWIDTH 16 0
BBX 12 11 2 15
BITMAP
0600
0600
0600
6670
FFF0
3FC0
0F00
1F80
39C0
39C0
1080
ENDCHAR
STARTCHAR 002B
ENCODING 43
SWIDTH 472 0
DWIDTH 17 0
BBX 12 13 2 4
BITMAP
0600
0600
0600
0600
0600
FFF0
FFF0
FFF0
0600
0600
0600
0600
0600
ENDCHAR
STARTCHAR 002C
ENCODING 44
SWIDTH 222 0
DWIDTH 8 0
BBX 4 9 1 -5
BITMAP
70
70
70
70
70
E0
E0
E0
E0
ENDCHAR
STARTCHAR 002D
ENCODING 45
SWIDTH 305 0
DWIDTH 11 0
BBX 7 3 2 9
BITMAP
FE
FE
FE
ENDCHAR
STARTCHAR 002E
ENCODING 46
SWIDTH 194 0
DWIDTH 7 0
BBX 3 4 2 0
BITMAP
E0
E0
E0
E0
ENDCHAR
STARTCHAR 002F
ENCODING 47
SWIDTH 444 0
DWIDTH 16 0
BBX 16 32 0 -7
BITMAP
000F
000E
001E
001E
001C
003C
003C
0078
0078
0070
00F0
00F0
00E0
01E0
01E0
03C0
03C0
0380
0780
0780
0F00
0F00
0E00
1E00
1E00
1C00
3C00
3C00
7800
7800
7000
F000
ENDCHAR
STARTCHAR 0030
ENCODING 48
SWIDTH 527 0
DWIDTH 19 0
BBX 13 25 3 0
BITMAP
3FE0
7FF0
FFF8
F078
E038
E038
E038
E038
E038
E038
E038
E038
E038
E038
E038
E038
E038
E038
E038
E038
E038
F078
FFF8
7FF0
3FE0
ENDCHAR
STARTCHAR 0031
ENCODING 49
SWIDTH 527 0
DWIDTH 19 0
BBX 12 26 3 1
BITMAP
0100
0300
0F00
1F00
7F00
FF00
E700
C700
0700
0700
0700
0700
0700
0700
0700
0700
0700
0700
0700
0700
0700
0700
0700
7FF0
7FF0
7FF0
ENDCHAR
STARTCHAR 0032
ENCODING 50
SWIDTH 527 0
DWIDTH 19 0
BBX 13 25 3 0
BITMAP
FFE0
FFF0
FFF8
0078
0038
0038
0038
0038
00F0
01F0
03E0
07C0
0F00
1E00
7C00
7800
F000
E000
E000
E000
E000
E000
FFF8
FFF8
FFF8
ENDCHAR
STARTCHAR 0033
ENCODING 51
SWIDTH 527 0
DWIDTH 19 0
BBX 13 25 3 0
BITMAP
FFE0
FFF0
FFF8
0038
0038
0038
0038
0038
0038
0038
3FF0
3FC0
3FF0
0038
0038
0038
0038
0038
0038
0038
0038
0078
FFF8
FFF0
FFE0
ENDCHAR
STARTCHAR 0034
ENCODING 52
SWIDTH 527 0
DWIDTH 19 0
BBX 16 25 2 0
BITMAP
00F0
00F0
01F0
01F0
03F0
03F0
0770
0670
0E70
0C70
1C70
3870
3870
7070
7070
E070
FFFF
FFFF
FFFF
0070
0070
0070
0070
0070
0070
ENDCHAR
STARTCHAR 0035
ENCODING 53
SWIDTH 527 0
DWIDTH 19 0
BBX 13 25 3 0
BITMAP
FFF8
FFF8
FFF8
E000
E000
E000
E000
E000
E000
E000
FFE0
FFF0
FFF8
0038
0038
0038
0038
0038
0038
0038
0038
0038
FFF8
FFF0
FFE0
ENDCHAR
STARTCHAR 0036
ENCODING 54
SWIDTH 527 0
DWIDTH 19 0
BBX 13 25 3 0
BITMAP
3FF8
7FF8
FFF8
E000
E000
E000
E000
E000
E000
E000
FFE0
FFF0
FFF8
E038
E038
E038
E038
E038
E038
E038
E038
F038
FFF8
7FF0
3FE0
ENDCHAR
STARTCHAR 0037
ENCODING 55
SWIDTH 527 0
DWIDTH 19 0
BBX 15 25 2 0
BITMAP
FFFE
FFFE
FFFE
001E
001C
003C
003C
0038
0078
0070
00F0
00F0
00E0
01E0
01C0
03C0
03C0
0380
0780
0700
0F00
0F00
1E00
1E00
1E00
ENDCHAR
STARTCHAR 0038
ENCODING 56
SWIDTH 527 0
DWIDTH 19 0
BBX 13 25 3 0
BITMAP
3FE0
7FF0
FFF8
E038
E038
E038
E038
E038
E038
E038
7FF0
1FC0
7FF0
E038
E038
E038
E038
E038
E038
E038
E038
E038
FFF8
7FF0
3FE0
ENDCHAR
STARTCHAR 0039
ENCODING 57
SWIDTH 527 0
DWIDTH 19 0
BBX 13 25 3 0
BITMAP
3FE0
7FF0
FFF8
E078
E038
E038
E038
E038
E038
E038
E038
FFF8
7FF8
3FF8
0038
0038
0038
0038
0038
0038
0038
0038
FFF8
FFF0
FFE0
ENDCHAR
STARTCHAR 003A
ENCODING 58
SWIDTH 222 0
DWIDTH 8 0
BBX 3 18 2 0
BITMAP
E0
E0
E0
E0
00
00
00
00
00
00
00
00
00
00
E0
E0
E0
E0
ENDCHAR
STARTCHAR 003B
ENCODING 59
SWIDTH 222 0
DWIDTH 8 0
BBX 4 23 1 -5
BITMAP
70
70
70
70
00
00
00
00
00
00
00
00
00
00
70
70
70
70
70
60
E0
E0
E0
ENDCHAR
STARTCHAR 003C
ENCODING 60
SWIDTH 472 0
DWIDTH 17 0
BBX 13 15 2 4
BITMAP
0018
0078
01F0
07E0
1F80
7E00
F800
F800
FC00
3F00
0FC0
03F0
00F8
0038
0008
ENDCHAR
STARTCHAR 003D
ENCODING 61
SWIDTH 472 0
DWIDTH 17 0
BBX 13 11 2 5
BITMAP
FFF8
FFF8
FFF8
0000
0000
0000
0000
0000
FFF8
FFF8
FFF8
ENDCHAR
STARTCHAR 003E
ENCODING 62
SWIDTH 472 0
DWIDTH 17 0
BBX 13 15 2 4
BITMAP
C000
F000
FC00
3F00
0FC0
03F0
01F8
0078
01F8
07E0
1F80
3E00
F800
E000
8000
ENDCHAR
STARTCHAR 003F
ENCODING 63
SWIDTH 416 0
DWIDTH 15 0
BBX 11 25 2 0
BITMAP
FFC0
FFE0
FFE0
00E0
00E0
00E0
00E0
01C0
03C0
0780
0F00
1E00
1C00
1C00
1C00
1C00
1C00
1C00
1C00
0000
0000
1C00
1C00
1C00
1C00
ENDCHAR
STARTCHAR 0040
ENCODING 64
SWIDTH 750 0
DWIDTH 27 0
BBX 21 25 3 -4
BITMAP
3FFC00
7FFE00
FFFF00
E00700
E00700
E00700
E00700
E1FF18
E3FF18
E30718
E30718
E30718
E30718
E30718
E30718
E3FF18
E3FF18
E1FF18
E00018
E00018
E00018
E00018
FFFFF8
7FFFF8
3FFFE0
ENDCHAR
STARTCHAR 0041
ENCODING 65
SWIDTH 500 0
DWIDTH 18 0
BBX 18 25 0 0
BITMAP
01E000
03F000
03F000
03F000
03F000
07F800
077800
073800
073C00
0F3C00
0E3C00
0E1C00
1E1E00
1E1E00
1C1E00
1C0E00
3C0F00
3FFF00
3FFF00
380780
780780
780780
700780
F003C0
F003C0
ENDCHAR
STARTCHAR 0042
ENCODING 66
SWIDTH 555 0
DWIDTH 20 0
BBX 15 25 2 0
BITMAP
FFF8
FFFC
FFFE
E00E
E00E
E00E
E00E
E00E
E00E
E00E
FFFC
FFF0
FFFC
E00E
E00E
E00E
E00E
E00E
E00E
E00E
E00E
E00E
FFFE
FFFC
FFF8
ENDCHAR
STARTCHAR 0043
ENCODING 67
SWIDTH 472 0
DWIDTH 17 0
BBX 13 25 3 0
BITMAP
3FF8
7FF8
FFF8
E000
E000
E000
E000
E000
E000
E000
E000
E000
E000
E000
E000
E000
E000
E000
E000
E000
E000
E000
FFF8
7FF8
3FF8
ENDCHAR
STARTCHAR 0044
ENCODING 68
SWIDTH 555 0
DWIDTH 20 0
BBX 14 25 3 0
BITMAP
FFF0
FFF8
FFFC
E01C
E01C
E01C
E01C
E01C
E01C
E01C
E01C
E01C
E01C
E01C
E01C
E01C
E01C
E01C
E01C
E01C
E01C
E01C
FFFC
FFF8
FFF0
ENDCHAR
STARTCHAR 0045
ENCODING 69
SWIDTH 472 0
DWIDTH 17 0
BBX 13 25 3 0
BITMAP
FFF8
FFF8
FFF8
E000
E000
E000
E000
E000
E000
E000
FFE0
FFE0
FFE0
E000
E000
E000
E000
E000
E000
E000
E000
E000
FFF8
FFF8
FFF8
ENDCHAR
STARTCHAR 0046
ENCODING 70
SWIDTH 444 0
DWIDTH 16 0
BBX 13 25 3 0
BITMAP
FFF8
FFF8
FFF8
E000
E000
E000
E000
E000
E000
E000
FFE0
FFE0
FFE0
E000
E000
E000
E000
E000
E000
E000
E000
E000
E000
E000
E000
ENDCHAR
STARTCHAR 0047
ENCODING 71
SWIDTH 555 0
DWIDTH 20 0
BBX 14 25 3 0
BITMAP
3FFC
7FFC
FFFC
F000
E000
E000
E000
E000
E000
E000
E1FC
E1FC
E1FC
E01C
E01C
E01C
E01C
E01C
E01C
E01C
E01C
E01C
FFFC
7FF8
3FF0
ENDCHAR
STARTCHAR 0048
ENCODING 72
SWIDTH 555 0
DWIDTH 20 0
BBX 14 25 3 1
BITMAP
E01C
E01C
E01C
E01C
E01C
E01C
E01C
E01C
E01C
E01C
FFFC
FFFC
FFFC
E01C
E01C
E01C
E01C
E01C
E01C
E01C
E01C
E01C
E01C
E01C
E01C
ENDCHAR
STARTCHAR 0049
ENCODING 73
SWIDTH 250 0
DWIDTH 9 0
BBX 3 25 3 1
BITMAP
E0
E0
E0
E0
E0
E0
E0
E0
E0
E0
E0
E0
E0
E0
E0
E0
E0
E0
E0
E0
E0
E0
E0
E0
E0
ENDCHAR
STARTCHAR 004A
ENCODING 74
SWIDTH 333 0
DWIDTH 12 0
BBX 8 25 1 1
BITMAP
07
07
07
07
07
07
07
07
07
07
07
07
07
07
07
07
07
07
07
07
07
07
FF
FE
FC
ENDCHAR
STARTCHAR 004B
ENCODING 75
SWIDTH 527 0
DWIDTH 19 0
BBX 16 25 3 1
BITMAP
F00F
F01E
F01E
F01C
F03C
F03C
F078
F078
F070
F0F0
FFE0
FFC0
FFE0
F0F0
F0F0
F078
F078
F03C
F03C
F03C
F01E
F01E
F00F
F00F
F00F
ENDCHAR
STARTCHAR 004C
ENCODING 76
SWIDTH 444 0
DWIDTH 16 0
BBX 13 25 3 1
BITMAP
E000
E000
E000
E000
E000
E000
E000
E000
E000
E000
E000
E000
E000
E000
E000
E000
E000
E000
E000
E000
E000
E000
FFF8
FFF8
FFF8
ENDCHAR
STARTCHAR 004D
ENCODING 77
SWIDTH 666 0
DWIDTH 24 0
BBX 18 25 3 1
BITMAP
F807C0
F807C0
FC07C0
FC0FC0
FC0FC0
FE0FC0
EE1DC0
EE1DC0
EE1DC0
E719C0
E739C0
E739C0
E739C0
E3F1C0
E3F1C0
E3F1C0
E1E1C0
E1E1C0
E1E1C0
E001C0
E001C0
E001C0
E001C0
E001C0
E001C0
ENDCHAR
STARTCHAR 004E
ENCODING 78
SWIDTH 555 0
DWIDTH 20 0
BBX 14 25 3 1
BITMAP
F01C
F01C
F81C
F81C
F81C
FC1C
FC1C
EE1C
EE1C
EE1C
E71C
E71C
E39C
E39C
E39C
E1DC
E1DC
E0FC
E0FC
E0FC
E07C
E07C
E03C
E03C
E03C
ENDCHAR
STARTCHAR 004F
ENCODING 79
SWIDTH 555 0
DWIDTH 20 0
BBX 14 25 3 0
BITMAP
3FF0
7FF8
FFFC
E01C
E01C
E01C
E01C
E01C
E01C
E01C
E01C
E01C
E01C
E01C
E01C
E01C
E01C
E01C
E01C
E01C
E01C
E01C
FFFC
7FF8
3FF0
ENDCHAR
STARTCHAR 0050
ENCODING 80
SWIDTH 527 0
DWIDTH 19 0
BBX 14 25 3 0
BITMAP
FFF0
FFF8
FFFC
E01C
E01C
E01C
E01C
E01C
E01C
E01C
E01C
FFFC
FFFC
FFF8
E000
E000
E000
E000
E000
E000
E000
E000
E000
E000
E000
ENDCHAR
STARTCHAR 0051
ENCODING 81
SWIDTH 555 0
DWIDTH 20 0
BBX 14 32 3 -8
BITMAP
3FF0
7FF8
FFFC
E01C
E01C
E01C
E01C
E01C
E01C
E01C
E01C
E01C
E01C
E01C
E01C
E01C
E01C
E01C
E01C
E31C
E31C
E19C
FFFC
7FF8
7FF0
00C0
00E0
00E0
0060
0070
0070
0030
ENDCHAR
STARTCHAR 0052
ENCODING 82
SWIDTH 555 0
DWIDTH 20 0
BBX 15 25 3 0
BITMAP
FFF0
FFF8
FFFC
E01C
E01C
E01C
E01C
E01C
E01C
E01C
FFFC
FFFC
FFF8
E0E0
E0F0
E070
E070
E078
E038
E038
E03C
E01C
E01C
E01E
E00E
ENDCHAR
STARTCHAR 0053
ENCODING 83
SWIDTH 500 0
DWIDTH 18 0
BBX 13 25 2 0
BITMAP
3FF8
7FF8
FFF8
E000
E000
E000
E000
E000
F000
7C00
3E00
1F00
0F80
03C0
01F0
00F0
0078
0038
0038
0038
0038
0038
FFF8
FFF0
FFE0
ENDCHAR
STARTCHAR 0054
ENCODING 84
SWIDTH 472 0
DWIDTH 17 0
BBX 15 25 1 0
BITMAP
FFFE
FFFE
FFFE
0380
0380
0380
0380
0380
0380
0380
0380
0380
0380
0380
0380
0380
0380
0380
0380
0380
0380
0380
0380
0380
0380
ENDCHAR
STARTCHAR 0055
ENCODING 85
SWIDTH 555 0
DWIDTH 20 0
BBX 14 25 3 1
BITMAP
E01C
E01C
E01C
E01C
E01C
E01C
E01C
E01C
E01C
E01C
E01C
E01C
E01C
E01C
E01C
E01C
E01C
E01C
E01C
E01C
E01C
F01C
FFFC
7FF8
3FF0
ENDCHAR
STARTCHAR 0056
ENCODING 86
SWIDTH 500 0
DWIDTH 18 0
BBX 18 25 0 1
BITMAP
F003C0
F003C0
700380
780380
780780
380700
380700
3C0F00
3C0F00
1C0E00
1E0E00
1E1E00
1E1E00
0E1C00
0F1C00
0F3C00
0F3C00
073800
07B800
07F800
03F000
03F000
03F000
03F000
01E000
ENDCHAR
STARTCHAR 0057
ENCODING 87
SWIDTH 750 0
DWIDTH 27 0
BBX 27 25 0 1
BITMAP
F00E01E0
F00F01E0
701F01C0
701F01C0
781F01C0
781F03C0
781B8380
383B8380
3C3B8380
3C3B8780
3C3B8780
1C33C700
1C71C700
1E71C700
1E71CF00
0E71CE00
0E71CE00
0E60EE00
0FE0EE00
0FE0FC00
07E0FC00
07E0FC00
07C07C00
07C07C00
03C07800
ENDCHAR
STARTCHAR 0058
ENCODING 88
SWIDTH 527 0
DWIDTH 19 0
BBX 19 25 0 1
BITMAP
7803C0
3C0780
3C0780
1E0F00
1E0F00
0F1E00
0F1E00
07BC00
07B800
03F800
01F000
01F000
01F000
03F800
03F800
07BC00
073C00
0F1E00
0E1E00
1E0F00
3C0F80
3C0780
7807C0
7803C0
F003E0
ENDCHAR
STARTCHAR 0059
ENCODING 89
SWIDTH 527 0
DWIDTH 19 0
BBX 17 25 1 1
BITMAP
F00780
F00780
780F00
780F00
3C1E00
3C1E00
1E3C00
1E3C00
0F3800
0F7800
077000
07E000
03E000
01C000
01C000
01C000
01C000
01C000
01C000
01C000
01C000
01C000
01C000
01C000
01C000
ENDCHAR
STARTCHAR 005A
ENCODING 90
SWIDTH 500 0
DWIDTH 18 0
BBX 15 25 1 0
BITMAP
FFFE
FFFE
FFFC
003C
0038
0078
0070
00F0
00E0
01E0
01C0
03C0
0380
0780
0700
0F00
0E00
1E00
1C00
3C00
3800
7800
7FFE
FFFE
FFFE
ENDCHAR
STARTCHAR 005B
ENCODING 91
SWIDTH 416 0
DWIDTH 15 0
BBX 7 32 3 -7
BITMAP
FE
FE
FE
E0
E0
E0
E0
E0
E0
E0
E0
E0
E0
E0
E0
E0
E0
E0
E0
E0
E0
E0
E0
E0
E0
E0
E0
E0
E0
FE
FE
FE
ENDCHAR
STARTCHAR 005C
ENCODING 92
SWIDTH 444 0
DWIDTH 16 0
BBX 16 25 0 1
BITMAP
F000
7000
7800
3800
3C00
1C00
1E00
0E00
0F00
0700
0780
0380
03C0
01C0
01E0
00E0
00F0
0070
0078
0078
003C
003C
001E
001E
000F
ENDCHAR
STARTCHAR 005D
ENCODING 93
SWIDTH 388 0
DWIDTH 14 0
BBX 7 32 3 -7
BITMAP
FE
FE
FE
0E
0E
0E
0E
0E
0E
0E
0E
0E
0E
0E
0E
0E
0E
0E
0E
0E
0E
0E
0E
0E
0E
0E
0E
0E
0E
FE
FE
FE
ENDCHAR
STARTCHAR 005E
ENCODING 94
SWIDTH 388 0
DWIDTH 14 0
BBX 13 10 0 16
BITMAP
0700
0700
0F80
1DC0
1DC0
38E0
3060
7070
6030
C038
ENDCHAR
STARTCHAR 005F
ENCODING 95
SWIDTH 722 0
DWIDTH 26 0
BBX 22 3 2 -5
BITMAP
FFFFFC
FFFFFC
FFFFFC
ENDCHAR
STARTCHAR 0060
ENCODING 96
SWIDTH 361 0
DWIDTH 13 0
BBX 6 5 4 20
BITMAP
E0
F0
70
38
1C
ENDCHAR
STARTCHAR 0061
ENCODING 97
SWIDTH 472 0
DWIDTH 17 0
BBX 12 18 2 0
BITMAP
FFC0
FFE0
FFF0
0070
0070
0070
0070
3FF0
7FF0
E070
E070
E070
E070
E070
E070
FFF0
7FF0
3FF0
ENDCHAR
STARTCHAR 0062
ENCODING 98
SWIDTH 472 0
DWIDTH 17 0
BBX 12 25 2 1
BITMAP
E000
E000
E000
E000
E000
E000
E000
FFC0
FFE0
FFF0
E070
E070
E070
E070
E070
E070
E070
E070
E070
E070
E070
E070
FFF0
FFE0
FFC0
ENDCHAR
STARTCHAR 0063
ENCODING 99
SWIDTH 388 0
DWIDTH 14 0
BBX 10 18 2 0
BITMAP
3FC0
7FC0
FFC0
E000
E000
E000
E000
E000
E000
E000
E000
E000
E000
E000
E000
FFC0
7FC0
3FC0
ENDCHAR
STARTCHAR 0064
ENCODING 100
SWIDTH 472 0
DWIDTH 17 0
BBX 12 25 2 1
BITMAP
0070
0070
0070
0070
0070
0070
0070
3FF0
7FF0
FFF0
E070
E070
E070
E070
E070
E070
E070
E070
E070
E070
E070
E070
FFF0
7FF0
3FF0
ENDCHAR
STARTCHAR 0065
ENCODING 101
SWIDTH 444 0
DWIDTH 16 0
BBX 12 18 2 0
BITMAP
3FC0
7FE0
FFF0
E070
E070
E070
E070
FFF0
FFF0
E000
E000
E000
E000
E000
E000
FFF0
7FF0
3FF0
ENDCHAR
STARTCHAR 0066
ENCODING 102
SWIDTH 277 0
DWIDTH 10 0
BBX 8 25 2 0
BITMAP
3F
7F
FF
E0
E0
E0
E0
FF
FF
FF
E0
E0
E0
E0
E0
E0
E0
E0
E0
E0
E0
E0
E0
E0
E0
ENDCHAR
STARTCHAR 0067
ENCODING 103
SWIDTH 472 0
DWIDTH 17 0
BBX 12 25 2 -7
BITMAP
3FF0
7FF0
FFF0
E070
E070
E070
E070
E070
E070
E070
E070
E070
E070
E070
E070
FFF0
7FF0
3FF0
0070
0070
0070
0070
FFF0
FFE0
FFC0
ENDCHAR
STARTCHAR 0068
ENCODING 104
SWIDTH 472 0
DWIDTH 17 0
BBX 12 25 2 1
BITMAP
E000
E000
E000
E000
E000
E000
E000
FFC0
FFE0
FFF0
E070
E070
E070
E070
E070
E070
E070
E070
E070
E070
E070
E070
E070
E070
E070
ENDCHAR
STARTCHAR 0069
ENCODING 105
SWIDTH 222 0
DWIDTH 8 0
BBX 3 24 2 0
BITMAP
E0
E0
E0
E0
00
00
E0
E0
E0
E0
E0
E0
E0
E0
E0
E0
E0
E0
E0
E0
E0
E0
E0
E0
ENDCHAR
STARTCHAR 006A
ENCODING 106
SWIDTH 222 0
DWIDTH 8 0
BBX 4 31 1 -8
BITMAP
70
70
70
70
00
00
70
70
70
70
70
70
70
70
70
70
70
70
70
70
70
70
70
70
70
70
70
70
70
E0
E0
ENDCHAR
STARTCHAR 006B
ENCODING 107
SWIDTH 444 0
DWIDTH 16 0
BBX 13 25 2 0
BITMAP
E000
E000
E000
E000
E000
E000
E000
E070
E0F0
E0E0
E0E0
E1E0
E1C0
E3C0
FF80
FF80
FF80
E3C0
E1C0
E1E0
E1E0
E0F0
E0F0
E070
E078
ENDCHAR
STARTCHAR 006C
ENCODING 108
SWIDTH 222 0
DWIDTH 8 0
BBX 3 25 2 1
BITMAP
E0
E0
E0
E0
E0
E0
E0
E0
E0
E0
E0
E0
E0
E0
E0
E0
E0
E0
E0
E0
E0
E0
E0
E0
E0
ENDCHAR
STARTCHAR 006D
ENCODING 109
SWIDTH 666 0
DWIDTH 24 0
BBX 20 18 2 0
BITMAP
FF8FC0
FFDFE0
FFFFF0
E07070
E07070
E07070
E07070
E07070
E07070
E07070
E07070
E07070
E07070
E07070
E07070
E07070
E07070
E07070
ENDCHAR
STARTCHAR 006E
ENCODING 110
SWIDTH 472 0
DWIDTH 17 0
BBX 12 18 2 0
BITMAP
FFC0
FFE0
FFF0
E070
E070
E070
E070
E070
E070
E070
E070
E070
E070
E070
E070
E070
E070
E070
ENDCHAR
STARTCHAR 006F
ENCODING 111
SWIDTH 472 0
DWIDTH 17 0
BBX 12 18 2 0
BITMAP
3FC0
7FE0
FFF0
E070
E070
E070
E070
E070
E070
E070
E070
E070
E070
E070
E070
FFF0
7FE0
3FC0
ENDCHAR
STARTCHAR 0070
ENCODING 112
SWIDTH 472 0
DWIDTH 17 0
BBX 12 25 2 -8
BITMAP
FFC0
FFE0
FFF0
E070
E070
E070
E070
E070
E070
E070
E070
E070
E070
E070
E070
FFF0
FFE0
FFC0
E000
E000
E000
E000
E000
E000
E000
ENDCHAR
STARTCHAR 0071
ENCODING 113
SWIDTH 472 0
DWIDTH 17 0
BBX 12 25 2 -8
BITMAP
3FF0
7FF0
FFF0
E070
E070
E070
E070
E070
E070
E070
E070
E070
E070
E070
E070
FFF0
7FF0
3FF0
0070
0070
0070
0070
0070
0070
0070
ENDCHAR
STARTCHAR 0072
ENCODING 114
SWIDTH 305 0
DWIDTH 11 0
BBX 8 18 2 0
BITMAP
EF
FF
FF
F0
E0
E0
E0
E0
E0
E0
E0
E0
E0
E0
E0
E0
E0
E0
ENDCHAR
STARTCHAR 0073
ENCODING 115
SWIDTH 416 0
DWIDTH 15 0
BBX 11 18 2 0
BITMAP
3FE0
7FE0
FFE0
E000
E000
E000
F800
7C00
3F00
0FC0
07E0
01E0
00E0
00E0
00E0
FFE0
FFC0
FF80
ENDCHAR
STARTCHAR 0074
ENCODING 116
SWIDTH 305 0
DWIDTH 11 0
BBX 8 23 2 1
BITMAP
20
E0
E0
E0
E0
FF
FF
FF
E0
E0
E0
E0
E0
E0
E0
E0
E0
E0
E0
E0
FF
7F
3F
ENDCHAR
STARTCHAR 0075
ENCODING 117
SWIDTH 472 0
DWIDTH 17 0
BBX 12 18 2 0
BITMAP
E070
E070
E070
E070
E070
E070
E070
E070
E070
E070
E070
E070
E070
E070
E070
FFF0
7FF0
3FF0
ENDCHAR
STARTCHAR 0076
ENCODING 118
SWIDTH 416 0
DWIDTH 15 0
BBX 14 18 0 0
BITMAP
F03C
F03C
7038
7038
7878
3870
3870
3870
3CF0
1CE0
1CE0
1CE0
1EC0
0FC0
0FC0
0FC0
0780
0780
ENDCHAR
STARTCHAR 0077
ENCODING 119
SWIDTH 666 0
DWIDTH 24 0
BBX 23 18 1 0
BITMAP
F03C1E
F07C1E
707C1C
787C1C
787C3C
786C38
386E38
3CEE38
3CEE78
1CEE70
1CC670
1CC770
1FC770
0FC7E0
0FC7E0
0F83E0
0F83C0
0783C0
ENDCHAR
STARTCHAR 0078
ENCODING 120
SWIDTH 444 0
DWIDTH 16 0
BBX 15 18 1 0
BITMAP
F01E
783C
7838
3C78
1C70
1EF0
0FE0
07C0
07C0
07C0
07C0
0FE0
1EF0
1CF0
3C78
3838
783C
F01E
ENDCHAR
STARTCHAR 0079
ENCODING 121
SWIDTH 416 0
DWIDTH 15 0
BBX 14 25 0 -8
BITMAP
F03C
F03C
7038
7038
7878
3870
3870
3870
3CF0
1CE0
1CE0
1CE0
1EC0
0FC0
0FC0
0FC0
0780
0780
0780
0700
0700
0F00
0F00
0E00
1E00
ENDCHAR
STARTCHAR 007A
ENCODING 122
SWIDTH 416 0
DWIDTH 15 0
BBX 12 18 1 0
BITMAP
FFF0
FFF0
FFE0
00E0
01C0
03C0
0380
0700
0700
0E00
0E00
1C00
3C00
3800
7800
7FF0
FFF0
FFF0
ENDCHAR
STARTCHAR 007B
ENCODING 123
SWIDTH 333 0
DWIDTH 12 0
BBX 9 32 1 -7
BITMAP
0780
1F80
1F80
3C00
3800
3800
3800
3800
3800
3800
3800
3800
3800
7800
F000
F000
7800
3800
3800
3800
3800
3800
3800
3800
3800
3800
3800
3800
3C00
1F80
1F80
0780
ENDCHAR
STARTCHAR 007C
ENCODING 124
SWIDTH 222 0
DWIDTH 8 0
BBX 3 32 3 -7
BITMAP
E0
E0
E0
E0
E0
E0
E0
E0
E0
E0
E0
E0
E0
E0
E0
E0
E0
E0
E0
E0
E0
E0
E0
E0
E0
E0
E0
E0
E0
E0
E0
E0
ENDCHAR
STARTCHAR 007D
ENCODING 125
SWIDTH 333 0
DWIDTH 12 0
BBX 9 32 1 -7
BITMAP
F000
FC00
FC00
1E00
0E00
0E00
0E00
0E00
0E00
0E00
0E00
0E00
0E00
0F00
0780
0780
0F00
0E00
0E00
0E00
0E00
0E00
0E00
0E00
0E00
0E00
0E00
0E00
1E00
FC00
F800
F000
ENDCHAR
STARTCHAR 007E
ENCODING 126
SWIDTH 472 0
DWIDTH 17 0
BBX 14 6 2 15
BITMAP
3C0C
7E0C
FF9C
C7FC
C1F8
C0F0
ENDCHAR
STARTCHAR 00A0
ENCODING 160
SWIDTH 250 0
DWIDTH 9 0
BBX 0 0 0 0
BITMAP
ENDCHAR
STARTCHAR 00A1
ENCODING 161
SWIDTH 222 0
DWIDTH 8 0
BBX 3 25 2 -8
BITMAP
E0
E0
E0
E0
00
00
E0
E0
E0
E0
E0
E0
E0
E0
E0
E0
E0
E0
E0
E0
E0
E0
E0
E0
E0
ENDCHAR
STARTCHAR 00A2
ENCODING 162
SWIDTH 388 0
DWIDTH 14 0
BBX 9 25 2 1
BITMAP
0C00
0C00
0C00
3F80
7F80
FF80
E000
E000
E000
E000
E000
E000
E000
E000
E000
E000
E000
E000
FF80
7F80
7F80
0C00
0C00
0C00
0C00
ENDCHAR
STARTCHAR 00A3
ENCODING 163
SWIDTH 472 0
DWIDTH 17 0
BBX 14 25 2 0
BITMAP
1FC0
3FC0
7FC0
7800
7000
7000
7000
7000
7000
7000
7000
FFC0
FFC0
FFC0
7000
7000
7000
7000
7000
7000
7000
7000
7FFC
7FFC
7FFC
ENDCHAR
STARTCHAR 00A4
ENCODING 164
SWIDTH 527 0
DWIDTH 19 0
BBX 18 25 0 1
BITMAP
7001C0
700380
380780
3C0700
1FFE00
1FFE00
1FFE00
1C0E00
1C0E00
1C0E00
1C0E00
1C0E00
1C0E00
1C0E00
1C0E00
1C0E00
1C0E00
1C0E00
1FFE00
1FFE00
1FFE00
380700
380780
700380
E001C0
ENDCHAR
STARTCHAR 00A5
ENCODING 165
SWIDTH 527 0
DWIDTH 19 0
BBX 18 25 0 1
BITMAP
F803C0
7803C0
7C0780
3C0780
1E0F00
1E0F00
0F0E00
0F1E00
071C00
07BC00
03B800
03F800
01F000
01E000
00E000
00E000
07F800
07F800
00E000
00E000
00E000
00E000
00E000
00E000
00E000
ENDCHAR
STARTCHAR 00A7
ENCODING 167
SWIDTH 444 0
DWIDTH 16 0
BBX 12 32 2 -7
BITMAP
3FF0
7FF0
FFF0
E000
E000
E000
F000
F800
FC00
FE00
EF80
E7C0
E1E0
E0F0
E070
E070
E070
F070
7870
3E70
1F70
07F0
03F0
01F0
00F0
0070
0070
0070
0070
FFF0
FFE0
FFC0
ENDCHAR
STARTCHAR 00A8
ENCODING 168
SWIDTH 388 0
DWIDTH 14 0
BBX 7 3 3 21
BITMAP
C6
C6
C6
ENDCHAR
STARTCHAR 00A9
ENCODING 169
SWIDTH 666 0
DWIDTH 24 0
BBX 18 25 3 0
BITMAP
3FFF80
FFFFC0
E001C0
C000C0
C7FCC0
CFFCC0
CC00C0
CC00C0
CC00C0
CC00C0
CC00C0
CC00C0
CC00C0
CC00C0
CC00C0
CC00C0
CC00C0
CC00C0
CC00C0
CFFCC0
C7FCC0
C000C0
E001C0
FFFFC0
7FFF00
ENDCHAR
STARTCHAR 00AA
ENCODING 170
SWIDTH 472 0
DWIDTH 17 0
BBX 12 25 2 0
BITMAP
FFC0
FFE0
FFF0
0070
0070
0070
0070
7FF0
7FF0
E070
E070
E070
E070
E070
E070
FFF0
7FF0
3FF0
0000
0000
0000
0000
FFF0
FFF0
FFF0
ENDCHAR
STARTCHAR 00AB
ENCODING 171
SWIDTH 611 0
DWIDTH 22 0
BBX 20 17 1 2
BITMAP
004010
00C030
03C0F0
0781E0
0F07C0
3E0F80
7C1E00
F03C00
F03800
F83E00
7C1F00
3E0F80
0F83E0
07C1F0
03C0F0
00C030
004010
ENDCHAR
STARTCHAR 00AC
ENCODING 172
SWIDTH 472 0
DWIDTH 17 0
BBX 12 12 2 0
BITMAP
FFF0
FFF0
FFF0
0070
0070
0070
0070
0070
0070
0070
0070
0070
ENDCHAR
STARTCHAR 00AE
ENCODING 174
SWIDTH 666 0
DWIDTH 24 0
BBX 18 25 3 0
BITMAP
3FFF80
FFFFC0
E001C0
C000C0
CFF8C0
CFFCC0
CC0CC0
CC0CC0
CC0CC0
CC0CC0
CC0CC0
CFFCC0
CFF8C0
CC30C0
CC38C0
CC38C0
CC18C0
CC1CC0
CC0CC0
CC0CC0
CC0EC0
C000C0
E001C0
FFFFC0
7FFF00
ENDCHAR
STARTCHAR 00AF
ENCODING 175
SWIDTH 388 0
DWIDTH 14 0
BBX 8 2 3 22
BITMAP
FF
FF
ENDCHAR
STARTCHAR 00B0
ENCODING 176
SWIDTH 333 0
DWIDTH 12 0
BBX 8 12 2 13
BITMAP
7E
FF
E7
C3
C3
C3
C3
C3
C3
FF
FF
7E
ENDCHAR
STARTCHAR 00B1
ENCODING 177
SWIDTH 472 0
DWIDTH 17 0
BBX 12 18 2 0
BITMAP
0600
0600
0600
0600
0600
FFF0
FFF0
FFF0
0600
0600
0600
0600
0600
0000
0000
FFF0
FFF0
FFF0
ENDCHAR
STARTCHAR 00B4
ENCODING 180
SWIDTH 361 0
DWIDTH 13 0
BBX 7 5 3 20
BITMAP
1E
1C
38
70
E0
ENDCHAR
STARTCHAR 00B5
ENCODING 181
SWIDTH 472 0
DWIDTH 17 0
BBX 12 25 2 -8
BITMAP
E070
E070
E070
E070
E070
E070
E070
E070
E070
E070
E070
E070
E070
E070
E070
FFF0
FFF0
FFF0
E000
E000
E000
E000
E000
E000
E000
ENDCHAR
STARTCHAR 00B6
ENCODING 182
SWIDTH 527 0
DWIDTH 19 0
BBX 14 25 3 1
BITMAP
7FFC
FFFC
FFFC
FFFC
FFFC
FFFC
FFFC
FFFC
FFFC
FFFC
FFFC
FFFC
FFFC
7FFC
001C
001C
001C
001C
001C
001C
001C
001C
001C
001C
001C
ENDCHAR
STARTCHAR 00B7
ENCODING 183
SWIDTH 222 0
DWIDTH 8 0
BBX 4 4 2 9
BITMAP
F0
F0
F0
F0
ENDCHAR
STARTCHAR 00B8
ENCODING 184
SWIDTH 361 0
DWIDTH 13 0
BBX 7 7 3 -7
BITMAP
30
30
3E
06
06
FE
FC
ENDCHAR
STARTCHAR 00BA
ENCODING 186
SWIDTH 472 0
DWIDTH 17 0
BBX 12 25 2 0
BITMAP
3FC0
7FE0
FFF0
E070
E070
E070
E070
E070
E070
E070
E070
E070
E070
E070
E070
FFF0
7FE0
3FC0
0000
0000
0000
0000
FFF0
FFF0
FFF0
ENDCHAR
STARTCHAR 00BB
ENCODING 187
SWIDTH 611 0
DWIDTH 22 0
BBX 20 17 1 2
BITMAP
802000
C03000
F03C00
F83E00
3E0F80
1F07C0
0F83E0
03C1F0
01C070
03C1F0
0F83E0
1F07C0
3C0F00
783E00
F03800
C03000
802000
ENDCHAR
STARTCHAR 00BF
ENCODING 191
SWIDTH 416 0
DWIDTH 15 0
BBX 11 25 2 -7
BITMAP
0700
0700
0700
0700
0000
0000
0700
0700
0700
0700
0700
0700
0700
0F00
1E00
3C00
7800
7000
E000
E000
E000
E000
FFE0
FFE0
7FE0
ENDCHAR
STARTCHAR 00C0
ENCODING 192
SWIDTH 500 0
DWIDTH 18 0
BBX 18 29 0 1
BITMAP
07F800
07F800
000000
000000
01E000
03F000
03F000
03F000
03F800
07F800
073800
073800
073C00
0F3C00
0E3C00
0E1C00
1E1E00
1E1E00
1C1E00
1C0E00
3C0F00
3FFF00
3FFF00
380780
780780
780780
780780
F003C0
F003C0
ENDCHAR
STARTCHAR 00C1
ENCODING 193
SWIDTH 500 0
DWIDTH 18 0
BBX 18 30 0 0
BITMAP
060C00
060C00
07FC00
03F800
000000
01F000
03F000
03F000
03F800
03F800
07F800
073800
073C00
073C00
0F3C00
0E1C00
0E1E00
1E1E00
1E1E00
1C0E00
1C0F00
3C0F00
3FFF00
3FFF00
380780
780780
780780
780780
F003C0
F003C0
ENDCHAR
STARTCHAR 00C2
ENCODING 194
SWIDTH 500 0
DWIDTH 18 0
BBX 18 30 0 0
BITMAP
061800
061800
061800
000000
000000
03F000
03F000
03F000
03F800
07F800
07F800
073800
073C00
0F3C00
0F3C00
0E1C00
1E1E00
1E1E00
1C1E00
1C0E00
3C0F00
3C0F00
3FFF00
3FFF00
780780
780780
780780
700780
F003C0
F003C0
ENDCHAR
STARTCHAR 00C3
ENCODING 195
SWIDTH 388 0
DWIDTH 14 0
BBX 10 25 2 1
BITMAP
03C0
0380
0700
0E00
1C00
0000
0000
3FC0
7FC0
FFC0
E000
E000
E000
E000
E000
E000
E000
E000
E000
E000
E000
E000
FFC0
7FC0
3FC0
ENDCHAR
STARTCHAR 00C4
ENCODING 196
SWIDTH 500 0
DWIDTH 18 0
BBX 18 29 0 1
BITMAP
070000
038000
00E000
000000
03E000
03F000
03F000
03F000
07F000
077800
077800
077800
0F3800
0E3C00
0E3C00
0E1C00
1E1E00
1C1E00
1C1E00
1C0E00
3C0F00
3FFF00
3FFF00
780F00
780780
700780
700780
F007C0
F003C0
ENDCHAR
STARTCHAR 00C5
ENCODING 197
SWIDTH 500 0
DWIDTH 18 0
BBX 18 30 0 0
BITMAP
078600
0FC600
0C7E00
0C1C00
000000
01F000
03F000
03F000
03F000
03F800
07F800
073800
073800
073C00
0F3C00
0E1C00
0E1E00
1E1E00
1E1E00
1C0E00
1C0F00
3C0F00
3FFF00
3FFF00
3C0780
7C0780
780780
780380
F803C0
F003C0
ENDCHAR
STARTCHAR 00C6
ENCODING 198
SWIDTH 750 0
DWIDTH 27 0
BBX 27 25 -1 0
BITMAP
000FFFE0
000FFFE0
001FFFE0
001F8000
003F8000
003B8000
007B8000
00738000
00F38000
00E38000
01E3FF80
01C3FF80
03C3FF80
03838000
07838000
07038000
0F038000
0FFF8000
1FFF8000
1E038000
3C038000
3C038000
7803FFE0
7803FFE0
F003FFE0
ENDCHAR
STARTCHAR 00C7
ENCODING 199
SWIDTH 472 0
DWIDTH 17 0
BBX 13 30 3 0
BITMAP
0380
07C0
0CE0
1870
0000
3FF8
7FF8
FFF8
E000
E000
E000
E000
E000
E000
E000
E000
E000
E000
E000
E000
E000
E000
E000
E000
E000
E000
E000
FFF8
7FF8
3FF8
ENDCHAR
STARTCHAR 00C8
ENCODING 200
SWIDTH 472 0
DWIDTH 17 0
BBX 13 30 3 0
BITMAP
1800
0C00
0600
0300
0000
FFF0
FFF0
FFF0
E000
E000
E000
E000
E000
E000
E000
FFC0
FFC0
FFC0
E000
E000
E000
E000
E000
E000
E000
E000
E000
FFF8
FFF8
FFF8
ENDCHAR
STARTCHAR 00C9
ENCODING 201
SWIDTH 472 0
DWIDTH 17 0
BBX 14 30 3 0
BITMAP
00E0
01C0
0300
0600
0000
FFF8
FFF8
FFF8
E000
E000
E000
E000
E000
E000
E000
FFE0
FFE0
FFE0
E000
E000
E000
E000
E000
E000
E000
E000
E000
FFFC
FFFC
FFFC
ENDCHAR
STARTCHAR 00CA
ENCODING 202
SWIDTH 472 0
DWIDTH 17 0
BBX 14 30 3 0
BITMAP
0780
0FC0
1CE0
3870
0000
FFF8
FFF8
FFF8
E000
E000
E000
E000
E000
E000
E000
FFF0
FFF0
FFF0
E000
E000
E000
E000
E000
E000
E000
E000
E000
FFFC
FFFC
FFFC
ENDCHAR
STARTCHAR 00CB
ENCODING 203
SWIDTH 472 0
DWIDTH 17 0
BBX 13 30 3 0
BITMAP
18C0
18C0
18C0
0000
0000
FFF0
FFF0
FFF0
E000
E000
E000
E000
E000
E000
E000
FFC0
FFC0
FFC0
E000
E000
E000
E000
E000
E000
E000
E000
E000
FFF8
FFF8
FFF8
ENDCHAR
STARTCHAR 00CC
ENCODING 204
SWIDTH 250 0
DWIDTH 9 0
BBX 6 30 0 0
BITMAP
E0
70
18
0C
00
1C
1C
1C
1C
1C
1C
1C
1C
1C
1C
1C
1C
1C
1C
1C
1C
1C
1C
1C
1C
1C
1C
1C
1C
1C
ENDCHAR
STARTCHAR 00CD
ENCODING 205
SWIDTH 250 0
DWIDTH 9 0
BBX 6 30 3 0
BITMAP
1C
38
60
C0
00
E0
E0
E0
E0
E0
E0
E0
E0
E0
E0
E0
E0
E0
E0
E0
E0
E0
E0
E0
E0
E0
E0
E0
E0
E0
ENDCHAR
STARTCHAR 00CE
ENCODING 206
SWIDTH 250 0
DWIDTH 9 0
BBX 10 30 -1 0
BITMAP
1C00
3E00
7700
E3C0
0000
1C00
1C00
1C00
1C00
1C00
1C00
1C00
1C00
1C00
1C00
1C00
1C00
1C00
1C00
1C00
1C00
1C00
1C00
1C00
1C00
1C00
1C00
1C00
1C00
1C00
ENDCHAR
STARTCHAR 00CF
ENCODING 207
SWIDTH 250 0
DWIDTH 9 0
BBX 7 30 0 0
BITMAP
C6
C6
C6
00
00
38
38
38
38
38
38
38
38
38
38
38
38
38
38
38
38
38
38
38
38
38
38
38
38
38
ENDCHAR
STARTCHAR 00D1
ENCODING 209
SWIDTH 555 0
DWIDTH 20 0
BBX 14 30 3 0
BITMAP
0E18
1F98
18F8
1870
0000
F01C
F81C
F81C
F81C
FC1C
FC1C
FC1C
EE1C
EE1C
EF1C
E71C
E71C
E39C
E39C
E39C
E1DC
E1DC
E0FC
E0FC
E0FC
E07C
E07C
E03C
E03C
E01C
ENDCHAR
STARTCHAR 00D2
ENCODING 210
SWIDTH 555 0
DWIDTH 20 0
BBX 14 30 3 0
BITMAP
1C00
0E00
0700
0380
0000
3FF0
7FF8
FFFC
E01C
E01C
E01C
E01C
E01C
E01C
E01C
E01C
E01C
E01C
E01C
E01C
E01C
E01C
E01C
E01C
E01C
E01C
E01C
FFFC
7FF8
3FF0
ENDCHAR
STARTCHAR 00D3
ENCODING 211
SWIDTH 555 0
DWIDTH 20 0
BBX 14 30 3 0
BITMAP
0060
00C0
0180
0700
0000
3FF0
7FF8
FFFC
E01C
E01C
E01C
E01C
E01C
E01C
E01C
E01C
E01C
E01C
E01C
E01C
E01C
E01C
E01C
E01C
E01C
E01C
E01C
FFFC
7FF8
3FF0
ENDCHAR
STARTCHAR 00D4
ENCODING 212
SWIDTH 555 0
DWIDTH 20 0
BBX 14 30 3 0
BITMAP
0700
0F80
1CC0
3860
0000
3FF0
7FF8
FFFC
E01C
E01C
E01C
E01C
E01C
E01C
E01C
E01C
E01C
E01C
E01C
E01C
E01C
E01C
E01C
E01C
E01C
E01C
E01C
FFFC
7FF8
3FF0
ENDCHAR
STARTCHAR 00D5
ENCODING 213
SWIDTH 555 0
DWIDTH 20 0
BBX 14 30 3 0
BITMAP
1E18
3F18
23F8
20F0
0000
3FF0
7FF8
FFFC
E03C
E01C
E01C
E01C
E01C
E01C
E01C
E01C
E01C
E01C
E01C
E01C
E01C
E01C
E01C
E01C
E01C
E01C
E03C
FFFC
7FF8
3FF0
ENDCHAR
STARTCHAR 00D6
ENCODING 214
SWIDTH 555 0
DWIDTH 20 0
BBX 14 30 3 0
BITMAP
1860
1860
1860
0000
0000
3FF0
7FF8
FFFC
E01C
E01C
E01C
E01C
E01C
E01C
E01C
E01C
E01C
E01C
E01C
E01C
E01C
E01C
E01C
E01C
E01C
E01C
E01C
FFFC
7FF8
3FF0
ENDCHAR
STARTCHAR 00D8
ENCODING 216
SWIDTH 555 0
DWIDTH 20 0
BBX 20 25 0 0
BITMAP
07FE70
0FFF60
1FFFC0
1C0380
1C0380
1C0380
1C0780
1C0780
1C0F80
1C1B80
1C3B80
1C3380
1C6380
1CC380
1DC380
1D8380
1F0380
1E0380
1E0380
1C0380
1C0380
1C0380
3FFF80
6FFF00
E7FE00
ENDCHAR
STARTCHAR 00D9
ENCODING 217
SWIDTH 555 0
DWIDTH 20 0
BBX 14 30 3 0
BITMAP
1C00
0E00
0700
0380
0000
E01C
E01C
E01C
E01C
E01C
E01C
E01C
E01C
E01C
E01C
E01C
E01C
E01C
E01C
E01C
E01C
E01C
E01C
E01C
E01C
E01C
F01C
FFFC
7FF8
3FF0
ENDCHAR
STARTCHAR 00DA
ENCODING 218
SWIDTH 555 0
DWIDTH 20 0
BBX 14 30 3 0
BITMAP
00E0
01C0
0380
0700
0000
E01C
E01C
E01C
E01C
E01C
E01C
E01C
E01C
E01C
E01C
E01C
E01C
E01C
E01C
E01C
E01C
E01C
E01C
E01C
E01C
E01C
F01C
FFFC
7FF8
3FF0
ENDCHAR
STARTCHAR 00DB
ENCODING 219
SWIDTH 555 0
DWIDTH 20 0
BBX 14 30 3 0
BITMAP
0780
0FC0
1CE0
3860
0000
E01C
E01C
E01C
E01C
E01C
E01C
E01C
E01C
E01C
E01C
E01C
E01C
E01C
E01C
E01C
E01C
E01C
E01C
E01C
E01C
E01C
F01C
FFFC
7FF8
3FF0
ENDCHAR
STARTCHAR 00DC
ENCODING 220
SWIDTH 555 0
DWIDTH 20 0
BBX 14 30 3 0
BITMAP
1860
1860
1860
0000
0000
E01C
E01C
E01C
E01C
E01C
E01C
E01C
E01C
E01C
E01C
E01C
E01C
E01C
E01C
E01C
E01C
E01C
E01C
E01C
E01C
E01C
F01C
FFFC
7FF8
3FF0
ENDCHAR
STARTCHAR 00DD
ENCODING 221
SWIDTH 527 0
DWIDTH 19 0
BBX 17 30 1 0
BITMAP
003800
007000
00C000
018000
000000
F00780
F00780
780F00
780F00
3C1E00
3C1E00
1E3C00
1E3C00
0F3800
0F7800
077000
07E000
03E000
01C000
01C000
01C000
01C000
01C000
01C000
01C000
01C000
01C000
01C000
01C000
01C000
ENDCHAR
STARTCHAR 00DF
ENCODING 223
SWIDTH 500 0
DWIDTH 18 0
BBX 14 25 2 0
BITMAP
3FF0
7FFC
FFFC
E01C
E01C
E01C
E03C
E07C
E0F8
E1E0
E3C0
E380
E380
E3C0
E3E0
E1F0
E0F8
E03C
E01C
E01C
E01C
E01C
E7FC
E7F8
E7F0
ENDCHAR
STARTCHAR 00E0
ENCODING 224
SWIDTH 472 0
DWIDTH 17 0
BBX 12 23 2 1
BITMAP
3FC0
3FC0
0000
0000
0000
FFC0
FFE0
FFF0
0070
0070
0070
0070
3FF0
7FF0
E070
E070
E070
E070
E070
E070
FFF0
7FF0
3FF0
ENDCHAR
STARTCHAR 00E1
ENCODING 225
SWIDTH 472 0
DWIDTH 17 0
BBX 12 25 2 0
BITMAP
2060
2060
30E0
3FE0
1FC0
0000
0000
FFC0
FFE0
FFF0
0070
0070
0070
0070
7FF0
7FF0
E070
E070
E070
E070
E070
E070
FFF0
7FF0
3FF0
ENDCHAR
STARTCHAR 00E2
ENCODING 226
SWIDTH 472 0
DWIDTH 17 0
BBX 12 24 2 0
BITMAP
30C0
30C0
30C0
0000
0000
0000
FFC0
FFE0
FFF0
0070
0070
0070
0070
3FF0
7FF0
E070
E070
E070
E070
E070
E070
FFF0
7FF0
3FF0
ENDCHAR
STARTCHAR 00E3
ENCODING 227
SWIDTH 500 0
DWIDTH 18 0
BBX 18 29 0 1
BITMAP
003800
006000
00C000
000000
01F000
01F000
01F000
03F000
03F800
03B800
07B800
073800
073C00
073C00
0F1C00
0E1E00
0E1E00
1E1E00
1C0E00
1C0F00
3C0F00
3FFF00
3FFF00
380780
780780
780780
700780
F003C0
F003C0
ENDCHAR
STARTCHAR 00E4
ENCODING 228
SWIDTH 472 0
DWIDTH 17 0
BBX 12 25 2 1
BITMAP
3800
1C00
0E00
0E00
0700
0000
0000
FFC0
FFE0
FFF0
0070
0070
0070
0070
3FF0
7FF0
E070
E070
E070
E070
E070
E070
FFF0
7FF0
3FF0
ENDCHAR
STARTCHAR 00E5
ENCODING 229
SWIDTH 472 0
DWIDTH 17 0
BBX 12 25 2 0
BITMAP
7830
7E30
FFF0
E3F0
E1E0
0000
0000
FFC0
FFE0
FFF0
0030
0030
0030
0030
3FF0
7FF0
F030
E030
E030
E030
E030
E030
FFF0
7FF0
3FF0
ENDCHAR
STARTCHAR 00E6
ENCODING 230
SWIDTH 694 0
DWIDTH 25 0
BBX 21 18 2 0
BITMAP
FFCFE0
FFFFF0
FFFFF8
007038
007038
007038
007038
3FFFF8
7FFFF8
E07000
E07000
E07000
E07000
E07000
E07000
FFFFF8
7FFFF8
3FCFF8
ENDCHAR
STARTCHAR 00E7
ENCODING 231
SWIDTH 388 0
DWIDTH 14 0
BBX 10 25 2 1
BITMAP
0E00
1F00
3B80
3180
71C0
0000
0000
3FC0
7FC0
FFC0
E000
E000
E000
E000
E000
E000
E000
E000
E000
E000
E000
E000
FFC0
7FC0
3FC0
ENDCHAR
STARTCHAR 00E8
ENCODING 232
SWIDTH 444 0
DWIDTH 16 0
BBX 12 25 2 1
BITMAP
3800
1C00
0E00
0700
0300
0000
0000
3FC0
7FE0
FFF0
E070
E070
E070
E070
FFF0
FFF0
E000
E000
E000
E000
E000
E000
FFF0
7FF0
3FF0
ENDCHAR
STARTCHAR 00E9
ENCODING 233
SWIDTH 444 0
DWIDTH 16 0
BBX 12 25 2 1
BITMAP
01C0
0180
0380
0700
0E00
0000
0000
3FC0
7FE0
FFF0
E070
E070
E070
E070
FFF0
FFF0
E000
E000
E000
E000
E000
E000
FFF0
7FF0
3FF0
ENDCHAR
STARTCHAR 00EA
ENCODING 234
SWIDTH 444 0
DWIDTH 16 0
BBX 12 25 2 1
BITMAP
0F00
1F00
1B80
39C0
70C0
0000
0000
3FC0
7FE0
FFF0
E070
E070
E070
E070
FFF0
FFF0
E000
E000
E000
E000
E000
E000
FFF0
7FF0
3FF0
ENDCHAR
STARTCHAR 00EB
ENCODING 235
SWIDTH 444 0
DWIDTH 16 0
BBX 12 24 2 0
BITMAP
30C0
30C0
30C0
0000
0000
0000
3FC0
7FE0
FFF0
E070
E070
E070
E070
FFF0
FFF0
E000
E000
E000
E000
E000
E000
FFF0
7FF0
3FF0
ENDCHAR
STARTCHAR 00EC
ENCODING 236
SWIDTH 222 0
DWIDTH 8 0
BBX 7 25 -2 1
BITMAP
F0
70
38
1C
0E
00
00
1E
1E
1E
1E
1E
1E
1E
1E
1E
1E
1E
1E
1E
1E
1E
1E
1E
1E
ENDCHAR
STARTCHAR 00ED
ENCODING 237
SWIDTH 222 0
DWIDTH 8 0
BBX 6 25 1 1
BITMAP
1C
1C
38
70
E0
00
00
70
70
70
70
70
70
70
70
70
70
70
70
70
70
70
70
70
70
ENDCHAR
STARTCHAR 00EE
ENCODING 238
SWIDTH 222 0
DWIDTH 8 0
BBX 10 25 -1 1
BITMAP
1C00
3E00
3700
6380
E3C0
0000
0000
1C00
1C00
1C00
1C00
1C00
1C00
1C00
1C00
1C00
1C00
1C00
1C00
1C00
1C00
1C00
1C00
1C00
1C00
ENDCHAR
STARTCHAR 00EF
ENCODING 239
SWIDTH 222 0
DWIDTH 8 0
BBX 7 24 0 0
BITMAP
C6
C6
C6
00
00
00
38
38
38
38
38
38
38
38
38
38
38
38
38
38
38
38
38
38
ENDCHAR
STARTCHAR 00F0
ENCODING 240
SWIDTH 527 0
DWIDTH 19 0
BBX 13 25 3 1
BITMAP
7880
3FC0
1F80
1F00
3F80
37C0
03C0
01E0
00F0
0078
3FF8
7FF8
FFF8
E038
E038
E038
E038
E038
E038
E038
E038
F078
FFF8
7FF0
3FE0
ENDCHAR
STARTCHAR 00F1
ENCODING 241
SWIDTH 472 0
DWIDTH 17 0
BBX 12 25 2 0
BITMAP
7870
7C70
FFF0
E3F0
E1E0
0000
0000
FFC0
FFE0
FFF0
E070
E070
E070
E070
E070
E070
E070
E070
E070
E070
E070
E070
E070
E070
E070
ENDCHAR
STARTCHAR 00F2
ENCODING 242
SWIDTH 472 0
DWIDTH 17 0
BBX 11 25 2 1
BITMAP
3800
3800
1C00
0C00
0600
0000
0000
3FC0
7FC0
FFE0
E0E0
E0E0
E0E0
E0E0
E0E0
E0E0
E0E0
E0E0
E0E0
E0E0
E0E0
E0E0
FFE0
7FC0
3F80
ENDCHAR
STARTCHAR 00F3
ENCODING 243
SWIDTH 472 0
DWIDTH 17 0
BBX 12 25 2 1
BITMAP
01C0
01C0
0380
0700
0600
0000
0000
3FC0
7FE0
FFF0
E070
E070
E070
E070
E070
E070
E070
E070
E070
E070
E070
E070
FFF0
7FE0
3FC0
ENDCHAR
STARTCHAR 00F4
ENCODING 244
SWIDTH 472 0
DWIDTH 17 0
BBX 12 25 2 1
BITMAP
0F00
1F00
1B80
39C0
70C0
0000
0000
3FC0
7FE0
FFF0
E070
E070
E070
E070
E070
E070
E070
E070
E070
E070
E070
E070
FFF0
7FE0
3FC0
ENDCHAR
STARTCHAR 00F5
ENCODING 245
SWIDTH 472 0
DWIDTH 17 0
BBX 12 25 2 0
BITMAP
7870
7C70
FFF0
E3F0
E1E0
0000
0000
3FC0
7FE0
FFF0
E070
E070
E070
E070
E070
E070
E070
E070
E070
E070
E070
E070
FFF0
7FE0
3FC0
ENDCHAR
STARTCHAR 00F6
ENCODING 246
SWIDTH 472 0
DWIDTH 17 0
BBX 12 24 2 0
BITMAP
30C0
30C0
30C0
0000
0000
0000
3FC0
7FE0
FFF0
E070
E070
E070
E070
E070
E070
E070
E070
E070
E070
E070
E070
FFF0
7FE0
3FC0
ENDCHAR
STARTCHAR 00F7
ENCODING 247
SWIDTH 472 0
DWIDTH 17 0
BBX 12 15 2 3
BITMAP
0600
0600
0600
0000
0000
0000
FFF0
FFF0
FFF0
0000
0000
0000
0600
0600
0600
ENDCHAR
STARTCHAR 00F8
ENCODING 248
SWIDTH 472 0
DWIDTH 17 0
BBX 16 18 0 0
BITMAP
0FF3
1FFE
3FFC
381C
381C
383C
387C
38DC
39DC
399C
3B1C
3E1C
3C1C
381C
381C
3FFC
7FF8
CFF0
ENDCHAR
STARTCHAR 00F9
ENCODING 249
SWIDTH 472 0
DWIDTH 17 0
BBX 12 25 2 1
BITMAP
3800
1C00
0E00
0600
0700
0000
0000
E070
E070
E070
E070
E070
E070
E070
E070
E070
E070
E070
E070
E070
E070
E070
FFF0
7FF0
3FF0
ENDCHAR
STARTCHAR 00FA
ENCODING 250
SWIDTH 472 0
DWIDTH 17 0
BBX 12 25 2 1
BITMAP
01C0
0180
0300
0700
0600
0000
0000
E070
E070
E070
E070
E070
E070
E070
E070
E070
E070
E070
E070
E070
E070
E070
FFF0
7FF0
3FF0
ENDCHAR
STARTCHAR 00FB
ENCODING 251
SWIDTH 472 0
DWIDTH 17 0
BBX 12 25 2 1
BITMAP
0F00
1F00
1B80
39C0
70C0
0000
0000
E070
E070
E070
E070
E070
E070
E070
E070
E070
E070
E070
E070
E070
E070
E070
FFF0
7FF0
3FF0
ENDCHAR
STARTCHAR 00FC
ENCODING 252
SWIDTH 472 0
DWIDTH 17 0
BBX 12 24 2 0
BITMAP
30C0
30C0
30C0
0000
0000
0000
E070
E070
E070
E070
E070
E070
E070
E070
E070
E070
E070
E070
E070
E070
E070
FFF0
7FF0
3FF0
ENDCHAR
STARTCHAR 00FD
ENCODING 253
SWIDTH 416 0
DWIDTH 15 0
BBX 14 32 0 -7
BITMAP
0070
00E0
01C0
0380
0380
0000
0000
F01C
F03C
7038
7838
7838
3878
3870
3C70
3C70
1C60
1CE0
1EE0
1EE0
0EC0
0FC0
0FC0
07C0
0780
0380
0780
0700
0700
0F00
0F00
1E00
ENDCHAR
STARTCHAR 00FF
ENCODING 255
SWIDTH 416 0
DWIDTH 15 0
BBX 14 31 0 -8
BITMAP
1860
1860
1860
0000
0000
0000
F03C
F03C
7038
7038
7878
7870
3870
3870
3870
3CE0
1CE0
1CE0
1CC0
1FC0
0FC0
0F80
0F80
0F80
0780
0700
0F00
0F00
0E00
1E00
1E00
ENDCHAR
STARTCHAR 0100
ENCODING 256
SWIDTH 500 0
DWIDTH 18 0
BBX 18 32 0 -7
BITMAP
01E000
01F000
03F000
03F000
03F000
07F800
073800
073800
073C00
0F3C00
0E3C00
0E1C00
0E1E00
1E1E00
1C1E00
1C0E00
1C0F00
3FFF00
3FFF00
380F00
780780
780780
780780
700780
F007C0
F003C0
000300
000C00
001800
001800
001FC0
000FC0
ENDCHAR
STARTCHAR 0101
ENCODING 257
SWIDTH 472 0
DWIDTH 17 0
BBX 12 25 2 -7
BITMAP
FFC0
FFE0
FFF0
0070
0070
0070
0070
3FF0
7FF0
E070
E070
E070
E070
E070
E070
FFF0
FFF0
7FF0
3FF0
00E0
0300
0600
0700
07F0
03F0
ENDCHAR
STARTCHAR 0102
ENCODING 258
SWIDTH 500 0
DWIDTH 18 0
BBX 18 29 0 1
BITMAP
01E000
037000
061800
000000
01F000
01F000
03F000
03F000
03F800
07F800
07B800
073800
073C00
0F3C00
0E1C00
0E1C00
1E1E00
1E1E00
1C0E00
1C0F00
3C0F00
3FFF00
3FFF00
380780
780780
780780
700380
F003C0
F003C0
ENDCHAR
STARTCHAR 0103
ENCODING 259
SWIDTH 472 0
DWIDTH 17 0
BBX 12 25 2 1
BITMAP
0F00
0F80
1B80
39C0
30C0
0000
0000
FFC0
FFE0
FFF0
0070
0070
0070
0070
3FF0
7FF0
E070
E070
E070
E070
E070
E070
FFF0
7FF0
3FF0
ENDCHAR
STARTCHAR 0104
ENCODING 260
SWIDTH 500 0
DWIDTH 18 0
BBX 18 30 0 1
BITMAP
07F800
061800
061800
03F000
000000
01F000
03F000
03F000
03F000
03F800
07F800
073800
073800
0F3C00
0F3C00
0E1C00
0E1C00
1E1E00
1E1E00
1C0E00
1C0F00
3C0F00
3FFF00
3FFF00
780780
780780
780780
700780
F003C0
F003C0
ENDCHAR
STARTCHAR 0105
ENCODING 261
SWIDTH 472 0
DWIDTH 17 0
BBX 12 26 2 0
BITMAP
1F80
3FC0
2040
2040
3FC0
1F80
0000
0000
FFC0
FFE0
FFF0
0070
0070
0070
0070
7FF0
7FF0
E070
E070
E070
E070
E070
E070
FFF0
7FF0
3FF0
ENDCHAR
STARTCHAR 0106
ENCODING 262
SWIDTH 472 0
DWIDTH 17 0
BBX 13 30 3 0
BITMAP
1870
0CE0
07C0
0380
0000
3FF8
7FF8
FFF8
E000
E000
E000
E000
E000
E000
E000
E000
E000
E000
E000
E000
E000
E000
E000
E000
E000
E000
E000
FFF8
7FF8
3FF8
ENDCHAR
STARTCHAR 0107
ENCODING 263
SWIDTH 388 0
DWIDTH 14 0
BBX 11 25 2 1
BITMAP
70E0
39C0
1D80
0F80
0F00
0000
0000
3FE0
7FE0
FFE0
E000
E000
E000
E000
E000
E000
E000
E000
E000
E000
E000
E000
FFE0
7FE0
3FE0
ENDCHAR
STARTCHAR 0108
ENCODING 264
SWIDTH 472 0
DWIDTH 17 0
BBX 12 30 3 0
BITMAP
0700
0700
0700
0000
0000
3FF0
7FF0
FFF0
E000
E000
E000
E000
E000
E000
E000
E000
E000
E000
E000
E000
E000
E000
E000
E000
E000
E000
E000
FFF0
7FF0
3FF0
ENDCHAR
STARTCHAR 0109
ENCODING 265
SWIDTH 388 0
DWIDTH 14 0
BBX 10 24 2 0
BITMAP
0E00
0E00
0E00
0E00
0000
0000
3FC0
7FC0
FFC0
E000
E000
E000
E000
E000
E000
E000
E000
E000
E000
E000
E000
FFC0
7FC0
3FC0
ENDCHAR
STARTCHAR 010A
ENCODING 266
SWIDTH 555 0
DWIDTH 20 0
BBX 14 30 3 0
BITMAP
1860
1CC0
0F80
0700
0000
FFF0
FFF8
FFFC
E01C
E01C
E01C
E01C
E01C
E01C
E01C
E01C
E01C
E01C
E01C
E01C
E01C
E01C
E01C
E01C
E01C
E01C
E01C
FFFC
FFF8
FFF0
ENDCHAR
STARTCHAR 010B
ENCODING 267
SWIDTH 472 0
DWIDTH 17 0
BBX 13 30 3 0
BITMAP
0070
00E0
0180
0300
0000
3FF8
7FF8
FFF8
F000
E000
E000
E000
E000
E000
E000
E000
E000
E000
E000
E000
E000
E000
E000
E000
E000
E000
F000
FFF8
7FF8
3FF8
ENDCHAR
STARTCHAR 010C
ENCODING 268
SWIDTH 472 0
DWIDTH 17 0
BBX 13 32 3 -7
BITMAP
3FF8
7FF8
FFF8
E000
E000
E000
E000
E000
E000
E000
E000
E000
E000
E000
E000
E000
E000
E000
E000
E000
E000
E000
FFF8
7FF8
7FF8
0300
0300
03E0
0060
0060
0FE0
0FC0
ENDCHAR
STARTCHAR 010D
ENCODING 269
SWIDTH 388 0
DWIDTH 14 0
BBX 10 25 2 -7
BITMAP
3FC0
7FC0
FFC0
E000
E000
E000
E000
E000
E000
E000
E000
E000
E000
E000
E000
FFC0
7FC0
3FC0
0C00
0C00
0F80
0180
0180
1F80
3F00
ENDCHAR
STARTCHAR 010E
ENCODING 270
SWIDTH 555 0
DWIDTH 20 0
BBX 14 29 3 1
BITMAP
1FE0
1FE0
0000
0000
FFF0
FFF8
FFFC
E01C
E01C
E01C
E01C
E01C
E01C
E01C
E01C
E01C
E01C
E01C
E01C
E01C
E01C
E01C
E01C
E01C
E01C
E01C
FFFC
FFF8
FFF0
ENDCHAR
STARTCHAR 010F
ENCODING 271
SWIDTH 472 0
DWIDTH 17 0
BBX 13 25 2 0
BITMAP
0070
0070
03F8
03F8
0070
0070
0070
3FF0
7FF0
FFF0
E070
E070
E070
E070
E070
E070
E070
E070
E070
E070
E070
E070
FFF0
7FF0
3FF0
ENDCHAR
STARTCHAR 0111
ENCODING 273
SWIDTH 472 0
DWIDTH 17 0
BBX 12 25 2 0
BITMAP
0070
0070
3FF0
3FF0
0070
0070
0070
3FF0
7FF0
FFF0
E070
E070
E070
E070
E070
E070
E070
E070
E070
E070
E070
E070
FFF0
7FF0
3FF0
ENDCHAR
STARTCHAR 0112
ENCODING 274
SWIDTH 472 0
DWIDTH 17 0
BBX 14 29 3 1
BITMAP
1FE0
1FE0
0000
0000
FFF8
FFF8
FFF8
E000
E000
E000
E000
E000
E000
E000
FFE0
FFE0
FFE0
E000
E000
E000
E000
E000
E000
E000
E000
E000
FFFC
FFFC
FFFC
ENDCHAR
STARTCHAR 0113
ENCODING 275
SWIDTH 444 0
DWIDTH 16 0
BBX 12 23 2 1
BITMAP
1FE0
1FE0
0000
0000
0000
3FC0
7FE0
FFF0
E070
E070
E070
E070
FFF0
FFF0
E000
E000
E000
E000
E000
E000
FFF0
7FF0
3FF0
ENDCHAR
STARTCHAR 0114
ENCODING 276
SWIDTH 472 0
DWIDTH 17 0
BBX 13 30 3 0
BITMAP
3060
3060
3FE0
1FC0
0000
FFF8
FFF8
FFF8
E000
E000
E000
E000
E000
E000
E000
FFE0
FFE0
FFE0
E000
E000
E000
E000
E000
E000
E000
E000
E000
FFF8
FFF8
FFF8
ENDCHAR
STARTCHAR 0115
ENCODING 277
SWIDTH 444 0
DWIDTH 16 0
BBX 12 25 2 0
BITMAP
6060
6060
70E0
7FE0
3FC0
0000
0000
3FC0
7FE0
FFF0
E070
E070
E070
E070
FFF0
FFF0
E000
E000
E000
E000
E000
E000
FFF0
7FF0
3FF0
ENDCHAR
STARTCHAR 0116
ENCODING 278
SWIDTH 472 0
DWIDTH 17 0
BBX 13 30 3 0
BITMAP
0700
0700
0700
0000
0000
FFF8
FFF8
FFF8
E000
E000
E000
E000
E000
E000
E000
FFE0
FFE0
FFE0
E000
E000
E000
E000
E000
E000
E000
E000
E000
FFF8
FFF8
FFF8
ENDCHAR
STARTCHAR 0117
ENCODING 279
SWIDTH 444 0
DWIDTH 16 0
BBX 12 24 2 0
BITMAP
0700
0700
0700
0700
0000
0000
3FC0
7FE0
FFF0
E070
E070
E070
E070
FFF0
FFF0
E000
E000
E000
E000
E000
E000
FFF0
7FF0
3FF0
ENDCHAR
STARTCHAR 0118
ENCODING 280
SWIDTH 472 0
DWIDTH 17 0
BBX 13 32 3 -7
BITMAP
FFF8
FFF8
FFF8
E000
E000
E000
E000
E000
E000
E000
FFE0
FFE0
FFE0
E000
E000
E000
E000
E000
E000
E000
E000
E000
FFF8
FFF8
FFF8
FFF8
0060
0180
0300
0300
03F8
01F8
ENDCHAR
STARTCHAR 0119
ENCODING 281
SWIDTH 444 0
DWIDTH 16 0
BBX 12 25 2 -7
BITMAP
3FC0
7FE0
FFF0
E070
E070
E070
E070
FFF0
FFF0
E000
E000
E000
E000
E000
E000
FFF0
FFF0
7FF0
3FF0
00C0
0600
0C00
0C00
0FF0
07F0
ENDCHAR
STARTCHAR 011A
ENCODING 282
SWIDTH 472 0
DWIDTH 17 0
BBX 14 30 3 0
BITMAP
3830
1CE0
0FC0
0780
0000
FFF8
FFF8
FFF8
E000
E000
E000
E000
E000
E000
E000
FFF0
FFF0
FFF0
E000
E000
E000
E000
E000
E000
E000
E000
E000
FFFC
FFFC
FFFC
ENDCHAR
STARTCHAR 011B
ENCODING 283
SWIDTH 444 0
DWIDTH 16 0
BBX 12 25 2 1
BITMAP
30E0
39C0
1D80
0F80
0F00
0000
0000
3FC0
7FE0
FFF0
E070
E070
E070
E070
FFF0
FFF0
E000
E000
E000
E000
E000
E000
FFF0
7FF0
3FF0
ENDCHAR
STARTCHAR 011C
ENCODING 284
SWIDTH 555 0
DWIDTH 20 0
BBX 14 30 3 0
BITMAP
0380
07C0
0EE0
1C70
0000
3FFC
7FFC
FFFC
F000
E000
E000
E000
E000
E000
E000
E1FC
E1FC
E1FC
E01C
E01C
E01C
E01C
E01C
E01C
E01C
E01C
E01C
FFFC
7FF8
3FF0
ENDCHAR
STARTCHAR 011D
ENCODING 285
SWIDTH 472 0
DWIDTH 17 0
BBX 12 32 2 -6
BITMAP
0700
0F80
1DC0
18C0
30E0
0000
0000
3FF0
7FF0
FFF0
E070
E070
E070
E070
E070
E070
E070
E070
E070
E070
E070
E070
FFF0
7FF0
3FF0
0070
0070
0070
0070
FFF0
FFE0
FFC0
ENDCHAR
STARTCHAR 011E
ENCODING 286
SWIDTH 555 0
DWIDTH 20 0
BBX 14 30 3 0
BITMAP
1860
1860
1FE0
0FC0
0000
3FFC
7FFC
FFFC
F000
E000
E000
E000
E000
E000
E000
E1FC
E1FC
E1FC
E01C
E01C
E01C
E01C
E01C
E01C
E01C
E01C
E01C
FFFC
7FF8
3FF0
ENDCHAR
STARTCHAR 011F
ENCODING 287
SWIDTH 472 0
DWIDTH 17 0
BBX 12 32 2 -7
BITMAP
2060
2060
30E0
3FE0
1FC0
0000
0000
3FF0
7FF0
FFF0
E070
E070
E070
E070
E070
E070
E070
E070
E070
E070
E070
E070
FFF0
FFF0
7FF0
0070
0070
0070
0070
FFF0
FFE0
FFC0
ENDCHAR
STARTCHAR 0120
ENCODING 288
SWIDTH 555 0
DWIDTH 20 0
BBX 14 30 3 0
BITMAP
0700
0700
0700
0000
0000
3FFC
7FFC
FFFC
F000
E000
E000
E000
E000
E000
E000
E3FC
E3FC
E3FC
E01C
E01C
E01C
E01C
E01C
E01C
E01C
E01C
E01C
FFFC
7FF8
3FF0
ENDCHAR
STARTCHAR 0121
ENCODING 289
SWIDTH 472 0
DWIDTH 17 0
BBX 12 31 2 -7
BITMAP
0700
0700
0700
0700
0000
0000
3FF0
7FF0
FFF0
E070
E070
E070
E070
E070
E070
E070
E070
E070
E070
E070
E070
FFF0
7FF0
3FF0
0070
0070
0070
0070
FFF0
FFE0
FFC0
ENDCHAR
STARTCHAR 0122
ENCODING 290
SWIDTH 555 0
DWIDTH 20 0
BBX 14 33 3 -8
BITMAP
3FFC
7FFC
FFFC
F000
E000
E000
E000
E000
E000
E000
E1FC
E1FC
E1FC
E01C
E01C
E01C
E01C
E01C
E01C
E01C
E01C
E01C
FFFC
7FF8
3FF0
0000
0000
01C0
01C0
01C0
0380
0380
0300
ENDCHAR
STARTCHAR 0123
ENCODING 291
SWIDTH 472 0
DWIDTH 17 0
BBX 12 34 2 -7
BITMAP
0180
0180
0180
0380
0380
0380
0000
0000
3FF0
7FF0
FFF0
E070
E070
E070
E070
E070
E070
E070
E070
E070
E070
E070
E070
FFF0
7FF0
3FF0
0070
0070
0070
0070
FFF0
FFF0
FFE0
FFC0
ENDCHAR
STARTCHAR 0124
ENCODING 292
SWIDTH 555 0
DWIDTH 20 0
BBX 14 30 3 1
BITMAP
0780
0FC0
1CE0
3870
0000
E01C
E01C
E01C
E01C
E01C
E01C
E01C
E01C
E01C
E01C
FFFC
FFFC
FFFC
E01C
E01C
E01C
E01C
E01C
E01C
E01C
E01C
E01C
E01C
E01C
E01C
ENDCHAR
STARTCHAR 0125
ENCODING 293
SWIDTH 472 0
DWIDTH 17 0
BBX 13 30 1 0
BITMAP
1C00
3E00
6700
C380
0000
7000
7000
7000
7000
7000
7000
7000
7FE0
7FF0
7FF8
7038
7038
7038
7038
7038
7038
7038
7038
7038
7038
7038
7038
7038
7038
7038
ENDCHAR
STARTCHAR 0126
ENCODING 294
SWIDTH 555 0
DWIDTH 20 0
BBX 18 25 1 0
BITMAP
380700
380700
FFFFC0
FFFFC0
380700
380700
380700
380700
380700
380700
3FFF00
3FFF00
3FFF00
380700
380700
380700
380700
380700
380700
380700
380700
380700
380700
380700
380700
ENDCHAR
STARTCHAR 0127
ENCODING 295
SWIDTH 472 0
DWIDTH 17 0
BBX 14 25 0 0
BITMAP
3800
3800
FF00
FF00
3800
3800
3800
3FF0
3FF8
3FFC
381C
381C
381C
381C
381C
381C
381C
381C
381C
381C
381C
381C
381C
381C
381C
ENDCHAR
STARTCHAR 0128
ENCODING 296
SWIDTH 250 0
DWIDTH 9 0
BBX 11 30 -1 0
BITMAP
7860
FC60
C7E0
C1C0
0000
0E00
0E00
0E00
0E00
0E00
0E00
0E00
0E00
0E00
0E00
0E00
0E00
0E00
0E00
0E00
0E00
0E00
0E00
0E00
0E00
0E00
0E00
0E00
0E00
0E00
ENDCHAR
STARTCHAR 0129
ENCODING 297
SWIDTH 222 0
DWIDTH 8 0
BBX 11 25 -1 0
BITMAP
7860
FC60
FFE0
C7E0
C3C0
0000
0000
1C00
1C00
1C00
1C00
1C00
1C00
1C00
1C00
1C00
1C00
1C00
1C00
1C00
1C00
1C00
1C00
1C00
1C00
ENDCHAR
STARTCHAR 012A
ENCODING 298
SWIDTH 250 0
DWIDTH 9 0
BBX 8 29 0 1
BITMAP
FF
FF
00
00
38
38
38
38
38
38
38
38
38
38
38
38
38
38
38
38
38
38
38
38
38
38
38
38
38
ENDCHAR
STARTCHAR 012B
ENCODING 299
SWIDTH 222 0
DWIDTH 8 0
BBX 8 23 0 1
BITMAP
FF
FF
00
00
00
38
38
38
38
38
38
38
38
38
38
38
38
38
38
38
38
38
38
ENDCHAR
STARTCHAR 012C
ENCODING 300
SWIDTH 250 0
DWIDTH 9 0
BBX 9 30 0 0
BITMAP
C180
C180
FF80
7F00
0000
1C00
1C00
1C00
1C00
1C00
1C00
1C00
1C00
1C00
1C00
1C00
1C00
1C00
1C00
1C00
1C00
1C00
1C00
1C00
1C00
1C00
1C00
1C00
1C00
1C00
ENDCHAR
STARTCHAR 012D
ENCODING 301
SWIDTH 222 0
DWIDTH 8 0
BBX 9 25 -1 0
BITMAP
C180
C180
E180
FF80
7F00
0000
0000
1C00
1C00
1C00
1C00
1C00
1C00
1C00
1C00
1C00
1C00
1C00
1C00
1C00
1C00
1C00
1C00
1C00
1C00
ENDCHAR
STARTCHAR 012E
ENCODING 302
SWIDTH 250 0
DWIDTH 9 0
BBX 6 31 0 -6
BITMAP
1C
1C
1C
1C
1C
1C
1C
1C
1C
1C
1C
1C
1C
1C
1C
1C
1C
1C
1C
1C
1C
1C
1C
1C
1C
30
60
C0
C0
FC
FC
ENDCHAR
STARTCHAR 012F
ENCODING 303
SWIDTH 222 0
DWIDTH 8 0
BBX 7 31 0 -7
BITMAP
38
38
38
38
00
00
38
38
38
38
38
38
38
38
38
38
38
38
38
38
38
38
38
38
38
30
60
C0
C0
FE
7E
ENDCHAR
STARTCHAR 0130
ENCODING 304
SWIDTH 250 0
DWIDTH 9 0
BBX 3 30 3 0
BITMAP
E0
E0
E0
00
E0
E0
E0
E0
E0
E0
E0
E0
E0
E0
E0
E0
E0
E0
E0
E0
E0
E0
E0
E0
E0
E0
E0
E0
E0
E0
ENDCHAR
STARTCHAR 0131
ENCODING 305
SWIDTH 222 0
DWIDTH 8 0
BBX 3 18 2 0
BITMAP
E0
E0
E0
E0
E0
E0
E0
E0
E0
E0
E0
E0
E0
E0
E0
E0
E0
E0
ENDCHAR
STARTCHAR 0132
ENCODING 306
SWIDTH 500 0
DWIDTH 18 0
BBX 13 25 3 1
BITMAP
E078
E078
E078
E078
E078
E078
E078
E078
E078
E078
E078
E078
E078
E078
E078
E078
E078
E078
E078
E078
E078
E078
EFF8
EFF0
EFE0
ENDCHAR
STARTCHAR 0133
ENCODING 307
SWIDTH 444 0
DWIDTH 16 0
BBX 11 31 2 -8
BITMAP
E0E0
E0E0
E0E0
E0E0
0000
0000
E0E0
E0E0
E0E0
E0E0
E0E0
E0E0
E0E0
E0E0
E0E0
E0E0
E0E0
E0E0
E0E0
E0E0
E0E0
E0E0
E0E0
E0E0
00E0
00E0
00E0
00E0
01E0
01E0
01C0
ENDCHAR
STARTCHAR 0134
ENCODING 308
SWIDTH 333 0
DWIDTH 12 0
BBX 12 30 0 0
BITMAP
0380
07C0
0CE0
1870
0000
0380
0380
0380
0380
0380
0380
0380
0380
0380
0380
0380
0380
0380
0380
0380
0380
0380
0380
0380
0380
0380
0780
FF80
FF00
FE00
ENDCHAR
STARTCHAR 0135
ENCODING 309
SWIDTH 222 0
DWIDTH 8 0
BBX 9 32 -1 -7
BITMAP
1C00
3E00
7700
6300
E380
0000
0000
1C00
1C00
1C00
1C00
1C00
1C00
1C00
1C00
1C00
1C00
1C00
1C00
1C00
1C00
1C00
1C00
1C00
1C00
1C00
1C00
1C00
1C00
3C00
3800
3800
ENDCHAR
STARTCHAR 0136
ENCODING 310
SWIDTH 527 0
DWIDTH 19 0
BBX 16 33 3 -7
BITMAP
F00F
F00E
F01E
F01E
F03C
F03C
F078
F078
F070
F0F0
FFE0
FFC0
FFE0
F0F0
F070
F078
F078
F03C
F03C
F03C
F01E
F01E
F00F
F00F
F00F
0000
0000
01C0
01C0
01C0
0180
0380
0380
ENDCHAR
STARTCHAR 0137
ENCODING 311
SWIDTH 444 0
DWIDTH 16 0
BBX 13 33 2 -8
BITMAP
E000
E000
E000
E000
E000
E000
E000
E078
E078
E070
E0F0
E0E0
E1E0
E1C0
FFC0
FF80
FFC0
E1E0
E1E0
E0E0
E0F0
E0F0
E078
E078
E038
0000
0000
0380
0380
0380
0700
0700
0F00
ENDCHAR
STARTCHAR 0139
ENCODING 313
SWIDTH 444 0
DWIDTH 16 0
BBX 13 30 3 0
BITMAP
0E00
1C00
3800
7000
0000
E000
E000
E000
E000
E000
E000
E000
E000
E000
E000
E000
E000
E000
E000
E000
E000
E000
E000
E000
E000
E000
E000
FFF8
FFF8
FFF8
ENDCHAR
STARTCHAR 013A
ENCODING 314
SWIDTH 222 0
DWIDTH 8 0
BBX 6 30 2 0
BITMAP
1C
38
70
E0
00
E0
E0
E0
E0
E0
E0
E0
E0
E0
E0
E0
E0
E0
E0
E0
E0
E0
E0
E0
E0
E0
E0
E0
E0
E0
ENDCHAR
STARTCHAR 013B
ENCODING 315
SWIDTH 444 0
DWIDTH 16 0
BBX 13 33 3 -7
BITMAP
E000
E000
E000
E000
E000
E000
E000
E000
E000
E000
E000
E000
E000
E000
E000
E000
E000
E000
E000
E000
E000
E000
FFF8
FFF8
FFF8
0000
0000
0700
0700
0700
0700
0E00
0E00
ENDCHAR
STARTCHAR 013C
ENCODING 316
SWIDTH 222 0
DWIDTH 8 0
BBX 4 33 1 -7
BITMAP
70
70
70
70
70
70
70
70
70
70
70
70
70
70
70
70
70
70
70
70
70
70
70
70
70
00
00
70
70
70
70
E0
E0
ENDCHAR
STARTCHAR 013D
ENCODING 317
SWIDTH 444 0
DWIDTH 16 0
BBX 13 25 3 0
BITMAP
E180
E100
E100
E100
E100
E100
E000
E000
E000
E000
E000
E000
E000
E000
E000
E000
E000
E000
E000
E000
E000
E000
FFF8
FFF8
FFF8
ENDCHAR
STARTCHAR 013E
ENCODING 318
SWIDTH 250 0
DWIDTH 9 0
BBX 7 25 2 0
BITMAP
E6
E6
E6
E6
E6
E6
E0
E0
E0
E0
E0
E0
E0
E0
E0
E0
E0
E0
E0
E0
E0
E0
E0
E0
E0
ENDCHAR
STARTCHAR 013F
ENCODING 319
SWIDTH 444 0
DWIDTH 16 0
BBX 13 25 3 1
BITMAP
E000
E000
E000
E000
E000
E000
E000
E000
E000
E380
E380
E380
E000
E000
E000
E000
E000
E000
E000
E000
E000
E000
FFF8
FFF8
FFF8
ENDCHAR
STARTCHAR 0140
ENCODING 320
SWIDTH 250 0
DWIDTH 9 0
BBX 8 25 2 1
BITMAP
E0
E0
E0
E0
E0
E0
E0
E0
E0
E0
E7
E7
E7
E0
E0
E0
E0
E0
E0
E0
E0
E0
E0
E0
E0
ENDCHAR
STARTCHAR 0141
ENCODING 321
SWIDTH 444 0
DWIDTH 16 0
BBX 15 25 1 1
BITMAP
3800
3800
3800
3800
3800
3820
3860
38E0
39C0
3B80
3F00
3E00
3C00
7800
F800
F800
B800
3800
3800
3800
3800
3800
3FFE
3FFE
3FFE
ENDCHAR
STARTCHAR 0142
ENCODING 322
SWIDTH 222 0
DWIDTH 8 0
BBX 6 25 1 1
BITMAP
78
78
78
78
78
78
78
7C
7C
7C
78
78
78
F8
F8
F8
78
78
78
78
78
78
78
78
78
ENDCHAR
STARTCHAR 0143
ENCODING 323
SWIDTH 555 0
DWIDTH 20 0
BBX 14 30 3 0
BITMAP
00E0
01C0
0380
0700
0000
F01C
F01C
F01C
F81C
F81C
FC1C
FC1C
EC1C
EE1C
EE1C
E71C
E71C
E39C
E39C
E39C
E1DC
E1DC
E0FC
E0FC
E0FC
E07C
E07C
E03C
E03C
E03C
ENDCHAR
STARTCHAR 0144
ENCODING 324
SWIDTH 472 0
DWIDTH 17 0
BBX 12 25 2 1
BITMAP
01C0
0380
0700
0700
0E00
0000
0000
FFC0
FFE0
FFF0
E070
E070
E070
E070
E070
E070
E070
E070
E070
E070
E070
E070
E070
E070
E070
ENDCHAR
STARTCHAR 0145
ENCODING 325
SWIDTH 555 0
DWIDTH 20 0
BBX 14 33 3 -7
BITMAP
F01C
F01C
F81C
F81C
F81C
FC1C
FC1C
EE1C
EE1C
EE1C
E71C
E71C
E39C
E39C
E39C
E1DC
E1DC
E0FC
E0FC
E0FC
E07C
E07C
E03C
E03C
E01C
0000
0000
01C0
01C0
01C0
0180
0380
0380
ENDCHAR
STARTCHAR 0146
ENCODING 326
SWIDTH 472 0
DWIDTH 17 0
BBX 12 26 2 -8
BITMAP
FFC0
FFE0
FFF0
E070
E070
E070
E070
E070
E070
E070
E070
E070
E070
E070
E070
E070
E070
E070
0000
0000
0380
0380
0380
0700
0700
0F00
ENDCHAR
STARTCHAR 0147
ENCODING 327
SWIDTH 555 0
DWIDTH 20 0
BBX 15 30 3 0
BITMAP
1C30
0EE0
07C0
0380
0000
F00E
F00E
F80E
F80E
FC0E
FC0E
FE0E
EE0E
EE0E
EF0E
E70E
E78E
E38E
E3CE
E1CE
E1EE
E0EE
E0FE
E07E
E07E
E07E
E03E
E03E
E01E
E01E
ENDCHAR
STARTCHAR 0148
ENCODING 328
SWIDTH 472 0
DWIDTH 17 0
BBX 12 25 2 1
BITMAP
70C0
3980
1F80
1F00
0F00
0000
0000
FFC0
FFE0
FFF0
E070
E070
E070
E070
E070
E070
E070
E070
E070
E070
E070
E070
E070
E070
E070
ENDCHAR
STARTCHAR 0149
ENCODING 329
SWIDTH 472 0
DWIDTH 17 0
BBX 12 25 2 0
BITMAP
E000
C000
C000
C000
C000
C000
0000
FFC0
FFE0
FFF0
C070
C070
C070
C070
C070
C070
C070
C070
C070
C070
C070
C070
C070
C070
C070
ENDCHAR
STARTCHAR 014A
ENCODING 330
SWIDTH 555 0
DWIDTH 20 0
BBX 14 30 3 -4
BITMAP
F01C
F01C
F81C
F81C
F81C
FC1C
FC1C
EE1C
EE1C
EE1C
E71C
E71C
E39C
E39C
E19C
E1DC
E1DC
E0FC
E0FC
E07C
E07C
E07C
E03C
E03C
E01C
001C
0018
0038
0038
0030
ENDCHAR
STARTCHAR 014B
ENCODING 331
SWIDTH 472 0
DWIDTH 17 0
BBX 12 23 2 -5
BITMAP
FFC0
FFE0
FFF0
E070
E070
E070
E070
E070
E070
E070
E070
E070
E070
E070
E070
E070
E070
E070
0070
0070
00E0
00E0
00E0
ENDCHAR
STARTCHAR 014C
ENCODING 332
SWIDTH 555 0
DWIDTH 20 0
BBX 14 29 3 1
BITMAP
1FE0
1FE0
0000
0000
3FF0
7FF8
FFFC
E01C
E01C
E01C
E01C
E01C
E01C
E01C
E01C
E01C
E01C
E01C
E01C
E01C
E01C
E01C
E01C
E01C
E01C
E01C
FFFC
7FF8
3FF0
ENDCHAR
STARTCHAR 014D
ENCODING 333
SWIDTH 472 0
DWIDTH 17 0
BBX 12 23 2 1
BITMAP
3FC0
3FC0
0000
0000
0000
3FC0
7FE0
FFF0
E070
E070
E070
E070
E070
E070
E070
E070
E070
E070
E070
E070
FFF0
7FE0
3FC0
ENDCHAR
STARTCHAR 014E
ENCODING 334
SWIDTH 555 0
DWIDTH 20 0
BBX 14 30 3 0
BITMAP
1860
1860
1FE0
0FC0
0000
3FF0
7FF8
FFFC
E01C
E01C
E01C
E01C
E01C
E01C
E01C
E01C
E01C
E01C
E01C
E01C
E01C
E01C
E01C
E01C
E01C
E01C
E01C
FFFC
7FF8
3FF0
ENDCHAR
STARTCHAR 014F
ENCODING 335
SWIDTH 472 0
DWIDTH 17 0
BBX 12 25 2 0
BITMAP
2060
2060
30E0
3FE0
1FC0
0000
0000
3FC0
7FE0
FFF0
E070
E070
E070
E070
E070
E070
E070
E070
E070
E070
E070
E070
FFF0
7FE0
3FC0
ENDCHAR
STARTCHAR 0150
ENCODING 336
SWIDTH 555 0
DWIDTH 20 0
BBX 14 30 3 0
BITMAP
0398
0730
0660
0C60
0000
3FF0
7FF8
FFFC
E01C
E01C
E01C
E01C
E01C
E01C
E01C
E01C
E01C
E01C
E01C
E01C
E01C
E01C
E01C
E01C
E01C
E01C
E01C
FFFC
7FF8
3FF0
ENDCHAR
STARTCHAR 0151
ENCODING 337
SWIDTH 472 0
DWIDTH 17 0
BBX 12 25 2 0
BITMAP
0E70
0C60
18C0
39C0
3180
0000
0000
3FC0
7FE0
FFF0
E070
E070
E070
E070
E070
E070
E070
E070
E070
E070
E070
E070
FFF0
7FE0
3FC0
ENDCHAR
STARTCHAR 0152
ENCODING 338
SWIDTH 805 0
DWIDTH 29 0
BBX 24 25 3 0
BITMAP
3FFFFF
7FFFFF
FFFFFF
E01C00
E01C00
E01C00
E01C00
E01C00
E01C00
E01C00
E01FFC
E01FFC
E01FFC
E01C00
E01C00
E01C00
E01C00
E01C00
E01C00
E01C00
E01C00
E01C00
FFFFFF
7FFFFF
3FFFFF
ENDCHAR
STARTCHAR 0153
ENCODING 339
SWIDTH 694 0
DWIDTH 25 0
BBX 21 18 2 0
BITMAP
3FCFE0
7FFFF0
FFFFF8
E07038
E07038
E07038
E07038
E07FF8
E07FF8
E07000
E07000
E07000
E07000
E07000
E07000
FFFFF8
7FFFF8
3FCFF8
ENDCHAR
STARTCHAR 0154
ENCODING 340
SWIDTH 555 0
DWIDTH 20 0
BBX 15 30 3 0
BITMAP
00E0
01C0
0300
0600
0000
FFF0
FFF8
FFFC
E01C
E01C
E01C
E01C
E01C
E01C
E01C
FFFC
FFFC
FFF8
E0E0
E0F0
E070
E070
E078
E038
E038
E03C
E01C
E01C
E01E
E00E
ENDCHAR
STARTCHAR 0155
ENCODING 341
SWIDTH 305 0
DWIDTH 11 0
BBX 8 25 2 1
BITMAP
07
07
0E
1C
38
00
00
EF
FF
FF
F0
E0
E0
E0
E0
E0
E0
E0
E0
E0
E0
E0
E0
E0
E0
ENDCHAR
STARTCHAR 0156
ENCODING 342
SWIDTH 555 0
DWIDTH 20 0
BBX 15 33 3 -8
BITMAP
FFF0
FFF8
FFFC
E01C
E01C
E01C
E01C
E01C
E01C
E01C
FFFC
FFFC
FFF8
E0E0
E0F0
E070
E070
E078
E038
E038
E03C
E01C
E01C
E01E
E00E
0000
0000
0380
0380
0380
0380
0700
0700
ENDCHAR
STARTCHAR 0157
ENCODING 343
SWIDTH 305 0
DWIDTH 11 0
BBX 9 26 1 -8
BITMAP
7780
7F80
7F80
7800
7000
7000
7000
7000
7000
7000
7000
7000
7000
7000
7000
7000
7000
7000
0000
0000
7000
7000
7000
7000
E000
E000
ENDCHAR
STARTCHAR 0158
ENCODING 344
SWIDTH 555 0
DWIDTH 20 0
BBX 15 30 3 0
BITMAP
1860
1CC0
0FC0
0780
0000
FFF0
FFF8
FFFC
E01C
E01C
E01C
E01C
E01C
E01C
E01C
FFFC
FFFC
FFF8
E0E0
E0F0
E070
E070
E078
E038
E038
E03C
E01C
E01C
E01E
E00E
ENDCHAR
STARTCHAR 0159
ENCODING 345
SWIDTH 305 0
DWIDTH 11 0
BBX 10 25 2 1
BITMAP
70C0
31C0
3B80
1F00
0E00
0000
0000
F7C0
FFC0
FFC0
F800
F000
F000
F000
F000
F000
F000
F000
F000
F000
F000
F000
F000
F000
F000
ENDCHAR
STARTCHAR 015A
ENCODING 346
SWIDTH 500 0
DWIDTH 18 0
BBX 13 30 2 0
BITMAP
00E0
01C0
0380
0600
0000
3FF8
7FF8
FFF8
E000
E000
E000
E000
E000
F000
7C00
3E00
1F00
0F80
03C0
01F0
00F0
0078
0038
0038
0038
0038
0038
FFF8
FFF0
FFE0
ENDCHAR
STARTCHAR 015B
ENCODING 347
SWIDTH 416 0
DWIDTH 15 0
BBX 11 25 2 1
BITMAP
01C0
0380
0300
0600
0E00
0000
0000
3FC0
7FC0
FFC0
E000
E000
E000
F800
7C00
3F00
0FC0
07E0
01E0
00E0
00E0
00E0
FFE0
FFC0
FF80
ENDCHAR
STARTCHAR 015C
ENCODING 348
SWIDTH 500 0
DWIDTH 18 0
BBX 13 30 2 0
BITMAP
0700
0780
0DC0
1860
0000
3FF8
7FF8
FFF8
E000
E000
E000
E000
E000
F000
7C00
3E00
1F00
0F80
03C0
01F0
00F0
0078
0038
0038
0038
0038
0038
FFF8
FFF0
FFE0
ENDCHAR
STARTCHAR 015D
ENCODING 349
SWIDTH 416 0
DWIDTH 15 0
BBX 11 25 2 1
BITMAP
0E00
1F00
1B80
3180
70C0
0000
0000
3FE0
7FE0
FFE0
E000
E000
E000
F800
7C00
3F00
0FC0
07E0
01E0
00E0
00E0
00E0
FFE0
FFC0
FF80
ENDCHAR
STARTCHAR 015E
ENCODING 350
SWIDTH 500 0
DWIDTH 18 0
BBX 13 32 2 -7
BITMAP
3FF8
7FF8
FFF8
E000
E000
E000
E000
E000
F000
7C00
3E00
1F00
0F80
03C0
01F0
00F0
0078
0038
0038
0038
0038
0038
FFF8
FFF0
FFF0
0600
0600
0FC0
00C0
00C0
1FC0
1F80
ENDCHAR
STARTCHAR 015F
ENCODING 351
SWIDTH 416 0
DWIDTH 15 0
BBX 11 25 2 -7
BITMAP
3FE0
7FE0
FFE0
E000
E000
E000
F800
7C00
3F00
0FC0
07E0
01E0
00E0
00E0
00E0
FFE0
FFC0
FF80
0C00
0C00
0F80
0180
0180
3F80
3F00
ENDCHAR
STARTCHAR 0160
ENCODING 352
SWIDTH 500 0
DWIDTH 18 0
BBX 13 30 2 0
BITMAP
1860
1CE0
0FC0
0780
0000
3FF8
7FF8
FFF8
E000
E000
E000
E000
E000
F000
7C00
3E00
1F00
0F80
03C0
01F0
00F0
0078
0038
0038
0038
0038
0038
FFF8
FFF0
FFE0
ENDCHAR
STARTCHAR 0161
ENCODING 353
SWIDTH 416 0
DWIDTH 15 0
BBX 11 25 2 1
BITMAP
3060
18C0
1DC0
0F80
0F00
0000
0000
3FE0
7FE0
FFE0
E000
E000
E000
F800
7C00
3F00
0FC0
03E0
00E0
0060
0060
0060
FFE0
FFC0
FF80
ENDCHAR
STARTCHAR 0162
ENCODING 354
SWIDTH 472 0
DWIDTH 17 0
BBX 15 33 1 -8
BITMAP
FFFE
FFFE
FFFE
0380
0380
0380
0380
0380
0380
0380
0380
0380
0380
0380
0380
0380
0380
0380
0380
0380
0380
0380
0380
0380
0380
0000
0000
0380
0380
0380
0380
0300
0700
ENDCHAR
STARTCHAR 0163
ENCODING 355
SWIDTH 305 0
DWIDTH 11 0
BBX 8 31 2 -7
BITMAP
20
E0
E0
E0
E0
FF
FF
FF
E0
E0
E0
E0
E0
E0
E0
E0
E0
E0
E0
E0
FF
7F
3F
00
00
1C
1C
1C
38
38
30
ENDCHAR
STARTCHAR 0164
ENCODING 356
SWIDTH 472 0
DWIDTH 17 0
BBX 16 30 1 0
BITMAP
1C38
0E70
07C0
0380
0000
FFFF
FFFF
FFFF
0380
0380
0380
0380
0380
0380
0380
0380
0380
0380
0380
0380
0380
0380
0380
0380
0380
0380
0380
0380
0380
0380
ENDCHAR
STARTCHAR 0165
ENCODING 357
SWIDTH 305 0
DWIDTH 11 0
BBX 8 25 2 0
BITMAP
03
03
23
63
E3
E3
E0
FF
FF
FF
E0
E0
E0
E0
E0
E0
E0
E0
E0
E0
E0
E0
FF
7F
3F
ENDCHAR
STARTCHAR 0166
ENCODING 358
SWIDTH 472 0
DWIDTH 17 0
BBX 14 25 1 0
BITMAP
FFFC
FFFC
FFFC
0380
0380
0380
0380
0380
0380
0380
0380
0380
0380
7FFC
7FFC
7FFC
0380
0380
0380
0380
0380
0380
0380
0380
0380
ENDCHAR
STARTCHAR 0167
ENCODING 359
SWIDTH 305 0
DWIDTH 11 0
BBX 11 23 0 1
BITMAP
0400
1C00
1C00
1C00
1C00
1FE0
1FE0
1FE0
1C00
1C00
1C00
FFE0
FFE0
FFE0
1C00
1C00
1C00
1C00
1C00
1C00
1FE0
0FE0
07E0
ENDCHAR
STARTCHAR 0168
ENCODING 360
SWIDTH 555 0
DWIDTH 20 0
BBX 14 30 3 0
BITMAP
1E18
3F18
31F8
3070
0000
F01C
F01C
F01C
F01C
F01C
F01C
F01C
F01C
F01C
F01C
F01C
F01C
F01C
F01C
F01C
F01C
F01C
F01C
F01C
F01C
F01C
F03C
FFFC
7FF8
3FF0
ENDCHAR
STARTCHAR 0169
ENCODING 361
SWIDTH 472 0
DWIDTH 17 0
BBX 12 25 2 0
BITMAP
7870
7C70
FFF0
E3F0
E1E0
0000
0000
E070
E070
E070
E070
E070
E070
E070
E070
E070
E070
E070
E070
E070
E070
E070
FFF0
7FF0
3FF0
ENDCHAR
STARTCHAR 016A
ENCODING 362
SWIDTH 555 0
DWIDTH 20 0
BBX 14 29 3 1
BITMAP
1FE0
1FE0
0000
0000
E01C
E01C
E01C
E01C
E01C
E01C
E01C
E01C
E01C
E01C
E01C
E01C
E01C
E01C
E01C
E01C
E01C
E01C
E01C
E01C
E01C
F01C
FFFC
7FF8
3FF0
ENDCHAR
STARTCHAR 016B
ENCODING 363
SWIDTH 472 0
DWIDTH 17 0
BBX 12 23 2 1
BITMAP
3FC0
3FC0
0000
0000
0000
E070
E070
E070
E070
E070
E070
E070
E070
E070
E070
E070
E070
E070
E070
E070
FFF0
7FF0
3FF0
ENDCHAR
STARTCHAR 016C
ENCODING 364
SWIDTH 555 0
DWIDTH 20 0
BBX 14 30 3 0
BITMAP
1860
1860
1FE0
0FC0
0000
E01C
E01C
E01C
E01C
E01C
E01C
E01C
E01C
E01C
E01C
E01C
E01C
E01C
E01C
E01C
E01C
E01C
E01C
E01C
E01C
E01C
F01C
FFFC
7FF8
3FF0
ENDCHAR
STARTCHAR 016D
ENCODING 365
SWIDTH 472 0
DWIDTH 17 0
BBX 12 25 2 0
BITMAP
2060
2060
30E0
3FE0
1FC0
0000
0000
E070
E070
E070
E070
E070
E070
E070
E070
E070
E070
E070
E070
E070
E070
E070
FFF0
7FF0
3FF0
ENDCHAR
STARTCHAR 016E
ENCODING 366
SWIDTH 555 0
DWIDTH 20 0
BBX 14 30 3 1
BITMAP
0FE0
1860
1860
0FC0
0000
E01C
E01C
E01C
E01C
E01C
E01C
E01C
E01C
E01C
E01C
E01C
E01C
E01C
E01C
E01C
E01C
E01C
E01C
E01C
E01C
E01C
F01C
FFFC
7FF8
3FF0
ENDCHAR
STARTCHAR 016F
ENCODING 367
SWIDTH 472 0
DWIDTH 17 0
BBX 12 26 2 0
BITMAP
1F80
3FC0
20C0
20C0
3FC0
1F80
0000
0000
E0F0
E0F0
E0F0
E0F0
E0F0
E0F0
E0F0
E0F0
E0F0
E0F0
E0F0
E0F0
E0F0
E0F0
E0F0
FFF0
7FF0
3FF0
ENDCHAR
STARTCHAR 0170
ENCODING 368
SWIDTH 555 0
DWIDTH 20 0
BBX 14 30 3 0
BITMAP
0398
0738
0630
0C60
0000
E01C
E01C
E01C
E01C
E01C
E01C
E01C
E01C
E01C
E01C
E01C
E01C
E01C
E01C
E01C
E01C
E01C
E01C
E01C
E01C
E01C
E01C
FFFC
7FF8
3FF0
ENDCHAR
STARTCHAR 0171
ENCODING 369
SWIDTH 472 0
DWIDTH 17 0
BBX 12 25 2 0
BITMAP
0730
0E70
0C60
18C0
18C0
0000
0000
E070
E070
E070
E070
E070
E070
E070
E070
E070
E070
E070
E070
E070
E070
E070
FFF0
7FF0
3FF0
ENDCHAR
STARTCHAR 0172
ENCODING 370
SWIDTH 555 0
DWIDTH 20 0
BBX 14 32 3 -6
BITMAP
E01C
E01C
E01C
E01C
E01C
E01C
E01C
E01C
E01C
E01C
E01C
E01C
E01C
E01C
E01C
E01C
E01C
E01C
E01C
E01C
E01C
F01C
FFFC
FFFC
7FF8
3FF0
0180
0600
0C00
0C00
0FE0
0FE0
ENDCHAR
STARTCHAR 0173
ENCODING 371
SWIDTH 472 0
DWIDTH 17 0
BBX 12 25 2 -7
BITMAP
E070
E070
E070
E070
E070
E070
E070
E070
E070
E070
E070
E070
E070
E070
E070
FFF0
FFF0
7FF0
3FF0
00E0
0300
0700
0700
07F0
03F0
ENDCHAR
STARTCHAR 0174
ENCODING 372
SWIDTH 750 0
DWIDTH 27 0
BBX 27 30 0 0
BITMAP
000F0000
001F8000
0039C000
0070E000
00000000
F00F00E0
F00F01E0
700F01C0
780F81C0
781F81C0
781F81C0
381F83C0
3C1F8380
3C1FC380
3C39C380
1C39C380
1C39C780
1E39C700
1E39C700
1E70E700
0E70E700
0F70EE00
0F70EE00
0F70EE00
07E07E00
07E07E00
07E07C00
07E07C00
03E07C00
03C03C00
ENDCHAR
STARTCHAR 0175
ENCODING 373
SWIDTH 666 0
DWIDTH 24 0
BBX 23 25 1 1
BITMAP
003C00
007E00
006E00
00E700
01C380
000000
000000
F03C0E
F03C1E
783C1C
783E1C
787E1C
387E1C
3C7E38
3C6638
3C6738
1CE738
1EE730
1EE770
0EC370
0EC3F0
0FC3E0
0FC3E0
07C3E0
0783E0
ENDCHAR
STARTCHAR 0176
ENCODING 374
SWIDTH 527 0
DWIDTH 19 0
BBX 18 30 1 0
BITMAP
01C000
03E000
077000
0E3C00
000000
F003C0
F003C0
780780
780700
3C0F00
3C1E00
1E1E00
1E3C00
0F3800
0F7800
077000
07F000
03E000
01C000
01C000
01C000
01C000
01C000
01C000
01C000
01C000
01C000
01C000
01C000
01C000
ENDCHAR
STARTCHAR 0177
ENCODING 375
SWIDTH 416 0
DWIDTH 15 0
BBX 14 32 0 -7
BITMAP
0780
0FC0
0DC0
1CE0
3870
0000
0000
F01C
F03C
7038
7038
7838
7870
3870
3870
3C70
1CE0
1CE0
1CE0
1EC0
0FC0
0FC0
0FC0
0F80
0780
0780
0700
0700
0F00
0E00
1E00
1E00
ENDCHAR
STARTCHAR 0178
ENCODING 376
SWIDTH 527 0
DWIDTH 19 0
BBX 17 30 0 0
BITMAP
063000
063000
063000
000000
000000
F00780
780700
780F00
3C0E00
3C1E00
1C1C00
1E3C00
0E3800
0F3800
077000
07F000
03E000
03E000
01C000
01C000
01C000
01C000
01C000
01C000
01C000
01C000
01C000
01C000
01C000
01C000
ENDCHAR
STARTCHAR 0179
ENCODING 377
SWIDTH 500 0
DWIDTH 18 0
BBX 15 30 1 0
BITMAP
0070
00E0
0180
0300
0000
FFFE
FFFE
FFFC
003C
0038
0078
0070
00F0
00E0
01E0
01C0
03C0
0380
0780
0700
0F00
0E00
1E00
1C00
3C00
3800
7800
7FFE
FFFE
FFFE
ENDCHAR
STARTCHAR 017A
ENCODING 378
SWIDTH 416 0
DWIDTH 15 0
BBX 12 25 1 1
BITMAP
01E0
01C0
0380
0700
0600
0000
0000
FFF0
FFF0
FFE0
00E0
01C0
03C0
0380
0780
0700
0E00
0E00
1C00
3C00
3800
7800
7FF0
FFF0
FFF0
ENDCHAR
STARTCHAR 017B
ENCODING 379
SWIDTH 500 0
DWIDTH 18 0
BBX 15 30 1 0
BITMAP
0380
0380
0380
0000
0000
FFFE
FFFE
FFFC
003C
0038
0078
0070
00F0
00E0
01E0
01C0
03C0
0380
0780
0700
0F00
0E00
1E00
1C00
3C00
3800
7800
7FFE
FFFE
FFFE
ENDCHAR
STARTCHAR 017C
ENCODING 380
SWIDTH 416 0
DWIDTH 15 0
BBX 12 24 1 0
BITMAP
0E00
0E00
0E00
0E00
0000
0000
FFF0
FFF0
FFE0
01E0
03C0
03C0
0780
0700
0F00
0E00
1E00
1C00
3C00
3800
7800
7FF0
FFF0
FFF0
ENDCHAR
STARTCHAR 017D
ENCODING 381
SWIDTH 500 0
DWIDTH 18 0
BBX 15 30 1 0
BITMAP
1C18
0F30
03E0
01C0
0000
FFFE
FFFE
FFFC
001C
0038
0038
0070
0070
00F0
00E0
01E0
01C0
03C0
0380
0780
0F00
0F00
1E00
1E00
3C00
3C00
7800
7FFE
FFFE
FFFE
ENDCHAR
STARTCHAR 017E
ENCODING 382
SWIDTH 416 0
DWIDTH 15 0
BBX 12 25 1 1
BITMAP
3860
1CC0
0DC0
0F80
0700
0000
0000
FFF0
FFF0
FFE0
00E0
01C0
01C0
0380
0780
0700
0E00
0E00
1C00
3C00
3800
7800
7FF0
FFF0
FFF0
ENDCHAR
STARTCHAR 0192
ENCODING 402
SWIDTH 305 0
DWIDTH 11 0
BBX 13 32 -2 -7
BITMAP
01F8
03F8
07F8
0700
0700
0700
0700
07F8
07F8
07F8
0700
0700
0700
0700
0700
0700
0700
0700
0700
0700
0700
0700
0700
0700
0700
0700
0700
0700
0700
FF00
FE00
FC00
ENDCHAR
STARTCHAR 0218
ENCODING 536
SWIDTH 472 0
DWIDTH 17 0
BBX 12 25 2 1
BITMAP
01C0
0380
0700
0700
0E00
0000
0000
FFC0
FFE0
FFF0
0070
0070
0070
0070
3FF0
7FF0
E070
E070
E070
E070
E070
E070
FFF0
7FF0
3FF0
ENDCHAR
STARTCHAR 0219
ENCODING 537
SWIDTH 500 0
DWIDTH 18 0
BBX 13 33 2 -8
BITMAP
3FF8
7FF8
FFF8
E000
E000
E000
E000
E000
F000
7C00
3E00
1F00
0F80
03C0
01F0
00F0
0078
0038
0038
0038
0038
0038
FFF8
FFF0
FFE0
0000
0000
0700
0700
0700
0700
0E00
0E00
ENDCHAR
STARTCHAR 02C6
ENCODING 710
SWIDTH 416 0
DWIDTH 15 0
BBX 10 5 3 20
BITMAP
1E00
3F00
3700
7380
E1C0
ENDCHAR
STARTCHAR 02C7
ENCODING 711
SWIDTH 416 0
DWIDTH 15 0
BBX 10 5 3 20
BITMAP
E1C0
7380
3F00
1E00
1E00
ENDCHAR
STARTCHAR 02D8
ENCODING 728
SWIDTH 416 0
DWIDTH 15 0
BBX 9 5 3 20
BITMAP
C180
C180
E380
FF80
7F00
ENDCHAR
STARTCHAR 02D9
ENCODING 729
SWIDTH 222 0
DWIDTH 8 0
BBX 3 4 2 20
BITMAP
E0
E0
E0
E0
ENDCHAR
STARTCHAR 02DA
ENCODING 730
SWIDTH 388 0
DWIDTH 14 0
BBX 8 6 3 20
BITMAP
7E
FF
C3
C3
FF
7E
ENDCHAR
STARTCHAR 02DB
ENCODING 731
SWIDTH 361 0
DWIDTH 13 0
BBX 6 7 3 -7
BITMAP
1C
70
C0
C0
C0
FC
7C
ENDCHAR
STARTCHAR 02DC
ENCODING 732
SWIDTH 444 0
DWIDTH 16 0
BBX 11 5 3 20
BITMAP
7860
FC60
FFE0
C7E0
C1C0
ENDCHAR
STARTCHAR 02DD
ENCODING 733
SWIDTH 472 0
DWIDTH 17 0
BBX 11 5 3 19
BITMAP
1CE0
39C0
3180
6300
E700
ENDCHAR
STARTCHAR 0394
ENCODING 916
SWIDTH 500 0
DWIDTH 18 0
BBX 17 25 0 1
BITMAP
01C000
01C000
01C000
03E000
03E000
03E000
03F000
077000
077000
077000
0E3800
0E3800
0E3800
1C1C00
1C1C00
1C1C00
1C1E00
380E00
380E00
380E00
700700
7FFF00
7FFF00
FFFF80
FFFF80
ENDCHAR
STARTCHAR 03A9
ENCODING 937
SWIDTH 527 0
DWIDTH 19 0
BBX 15 25 2 0
BITMAP
3FF8
7FFC
FFFE
E00E
E00E
E00E
E00E
E00E
E00E
E00E
E00E
E00E
E00E
E00E
E00E
FC7E
7C7C
3C78
0C60
0C60
0C60
0C60
FC7E
FC7E
FC7E
ENDCHAR
STARTCHAR 03C0
ENCODING 960
SWIDTH 500 0
DWIDTH 18 0
BBX 16 19 1 0
BITMAP
1C03
7F03
7FC3
DFFF
D9FE
D8FC
1838
1838
1838
1838
1838
1838
1838
1838
1838
1838
1838
1838
1838
ENDCHAR
STARTCHAR 2013
ENCODING 8211
SWIDTH 472 0
DWIDTH 17 0
BBX 13 3 2 9
BITMAP
FFF8
FFF8
FFF8
ENDCHAR
STARTCHAR 2014
ENCODING 8212
SWIDTH 722 0
DWIDTH 26 0
BBX 22 3 2 9
BITMAP
FFFFFC
FFFFFC
FFFFFC
ENDCHAR
STARTCHAR 2018
ENCODING 8216
SWIDTH 194 0
DWIDTH 7 0
BBX 4 8 2 19
BITMAP
70
70
70
E0
E0
E0
E0
E0
ENDCHAR
STARTCHAR 2019
ENCODING 8217
SWIDTH 194 0
DWIDTH 7 0
BBX 4 8 1 17
BITMAP
70
70
70
70
70
E0
E0
C0
ENDCHAR
STARTCHAR 201A
ENCODING 8218
SWIDTH 194 0
DWIDTH 7 0
BBX 4 8 1 -5
BITMAP
70
70
70
70
70
E0
E0
E0
ENDCHAR
STARTCHAR 201C
ENCODING 8220
SWIDTH 388 0
DWIDTH 14 0
BBX 10 8 2 19
BITMAP
71C0
71C0
71C0
E380
E380
E380
E380
E380
ENDCHAR
STARTCHAR 201D
ENCODING 8221
SWIDTH 388 0
DWIDTH 14 0
BBX 10 8 1 17
BITMAP
71C0
71C0
71C0
71C0
71C0
E380
E380
C380
ENDCHAR
STARTCHAR 201E
ENCODING 8222
SWIDTH 388 0
DWIDTH 14 0
BBX 10 8 1 -5
BITMAP
71C0
71C0
71C0
71C0
71C0
E380
E380
E380
ENDCHAR
STARTCHAR 2020
ENCODING 8224
SWIDTH 500 0
DWIDTH 18 0
BBX 16 25 1 1
BITMAP
0180
0180
0180
0180
0180
0180
0180
FFFF
FFFF
FFFF
0180
0180
0180
0180
0180
0180
0180
0180
0180
0180
0180
0180
0180
0180
0180
ENDCHAR
STARTCHAR 2021
ENCODING 8225
SWIDTH 527 0
DWIDTH 19 0
BBX 16 25 1 1
BITMAP
0180
0180
0180
0180
0180
0180
0180
FFFF
FFFF
FFFF
0180
0180
0180
0180
FFFF
FFFF
FFFF
0180
0180
0180
0180
0180
0180
0180
0180
ENDCHAR
STARTCHAR 2022
ENCODING 8226
SWIDTH 416 0
DWIDTH 15 0
BBX 11 16 2 2
BITMAP
3FC0
7FE0
FFE0
FFE0
FFE0
FFE0
FFE0
FFE0
FFE0
FFE0
FFE0
FFE0
FFE0
FFE0
7FC0
3F80
ENDCHAR
STARTCHAR 2026
ENCODING 8230
SWIDTH 694 0
DWIDTH 25 0
BBX 22 4 2 0
BITMAP
E0703C
E0703C
E0703C
E0703C
ENDCHAR
STARTCHAR 2030
ENCODING 8240
SWIDTH 916 0
DWIDTH 33 0
BBX 29 25 2 0
BITMAP
7C038000
FE078000
EE070000
C60F0000
C60E0000
C61E0000
C61C0000
C6380000
C6380000
C6700000
FE700000
7CE00000
00E00000
01CFC3F0
01DFE7F8
03986618
03986618
07186618
07186618
0E186618
0E186618
1C186618
1C1FE7B8
381FE7F8
380FC3F0
ENDCHAR
STARTCHAR 2039
ENCODING 8249
SWIDTH 361 0
DWIDTH 13 0
BBX 10 17 1 2
BITMAP
0040
00C0
03C0
0780
1F00
3E00
7C00
F800
F000
F800
7C00
3F00
0F80
07C0
03C0
00C0
0040
ENDCHAR
STARTCHAR 203A
ENCODING 8250
SWIDTH 361 0
DWIDTH 13 0
BBX 10 17 1 2
BITMAP
8000
C000
F000
F800
3E00
1F00
0F80
07C0
03C0
07C0
0F80
1F00
3C00
F800
F000
C000
8000
ENDCHAR
STARTCHAR 2044
ENCODING 8260
SWIDTH 444 0
DWIDTH 16 0
BBX 15 25 0 1
BITMAP
000E
001E
001C
003C
0038
0078
0078
00F0
00F0
01E0
01E0
01C0
03C0
0380
0780
0700
0F00
0E00
1E00
1C00
3C00
3800
7800
7000
F000
ENDCHAR
STARTCHAR 20AC
ENCODING 8364
SWIDTH 472 0
DWIDTH 17 0
BBX 14 25 2 0
BITMAP
1FFC
3FFC
7FFC
7000
7000
7000
7000
7000
FFE0
FFE0
7000
7000
7000
7000
FFE0
FFE0
7000
7000
7000
7000
7000
7800
7FFC
3FFC
1FFC
ENDCHAR
STARTCHAR 2122
ENCODING 8482
SWIDTH 555 0
DWIDTH 20 0
BBX 16 11 2 17
BITMAP
C000
C000
F3FF
F3FF
C333
C333
C333
C333
C333
F333
7333
ENDCHAR
STARTCHAR 2202
ENCODING 8706
SWIDTH 527 0
DWIDTH 19 0
BBX 13 25 3 1
BITMAP
7800
3C00
1E00
0F00
0700
0380
01C0
00E0
0070
0078
3FF8
7FF8
FFF8
E038
E038
E038
E038
E038
E038
E038
E038
F078
FFF8
7FF0
3FE0
ENDCHAR
STARTCHAR 220F
ENCODING 8719
SWIDTH 555 0
DWIDTH 20 0
BBX 14 25 3 0
BITMAP
FFFC
FFFC
FFFC
E01C
E01C
E01C
E01C
E01C
E01C
E01C
E01C
E01C
E01C
E01C
E01C
E01C
E01C
E01C
E01C
E01C
E01C
E01C
E01C
E01C
E01C
ENDCHAR
STARTCHAR 2211
ENCODING 8721
SWIDTH 500 0
DWIDTH 18 0
BBX 15 25 1 0
BITMAP
FFFE
FFFE
7FFE
7800
3800
3C00
1C00
1E00
0E00
0F00
0780
0780
03C0
0780
0700
0F00
0E00
1E00
1C00
3C00
3800
7800
7FFE
FFFE
FFFE
ENDCHAR
STARTCHAR 221A
ENCODING 8730
SWIDTH 694 0
DWIDTH 25 0
BBX 21 25 2 1
BITMAP
000078
000070
0000F0
0000F0
0000E0
0001E0
0001C0
FF03C0
FF0380
FF0780
070700
070F00
070E00
071E00
071C00
073C00
073800
077800
077000
077000
07E000
07E000
07C000
07C000
078000
ENDCHAR
STARTCHAR 221E
ENCODING 8734
SWIDTH 722 0
DWIDTH 26 0
BBX 22 12 2 7
BITMAP
7FCFF8
FFFFFC
FFFFFC
C0300C
C0300C
C0300C
C0300C
C0300C
C0300C
FFFFFC
FFFFFC
7FCFF0
ENDCHAR
STARTCHAR 222B
ENCODING 8747
SWIDTH 277 0
DWIDTH 10 0
BBX 13 32 -2 -7
BITMAP
01F8
03F8
07F8
0700
0700
0700
0700
0700
0700
0700
0700
0700
0700
0700
0700
0700
0700
0700
0700
0700
0700
0700
0700
0700
0700
0700
0700
0700
0700
FF00
FE00
FC00
ENDCHAR
STARTCHAR 2248
ENCODING 8776
SWIDTH 444 0
DWIDTH 16 0
BBX 13 13 2 5
BITMAP
3818
7E18
FF18
C7F8
C1F0
C0E0
0000
3818
7E18
FF18
C7F8
C3F8
C0F0
ENDCHAR
STARTCHAR 2260
ENCODING 8800
SWIDTH 472 0
DWIDTH 17 0
BBX 13 18 2 1
BITMAP
0038
0030
0070
0060
FFF8
FFF8
FFF8
0180
0300
0700
0600
0E00
FFF8
FFF8
FFF8
3000
3000
6000
ENDCHAR
STARTCHAR 2264
ENCODING 8804
SWIDTH 472 0
DWIDTH 17 0
BBX 13 20 2 1
BITMAP
0018
0078
01F0
07C0
1F80
7E00
F800
F000
FC00
3F00
0FC0
03E0
00F8
0078
0018
0000
0000
FFF8
FFF8
FFF8
ENDCHAR
STARTCHAR 2265
ENCODING 8805
SWIDTH 472 0
DWIDTH 17 0
BBX 13 20 2 1
BITMAP
C000
F000
FC00
3F00
0FC0
03F0
01F8
0078
01F8
07E0
0F80
3E00
F800
E000
C000
0000
0000
FFF8
FFF8
FFF8
ENDCHAR
STARTCHAR 25CA
ENCODING 9674
SWIDTH 500 0
DWIDTH 18 0
BBX 16 32 1 -7
BITMAP
01C0
03C0
03E0
07E0
07E0
0FF0
0FF0
0E78
1E78
1C38
3C3C
3C3C
381E
781E
700E
F00F
F00F
700E
781E
781C
3C3C
3C3C
1C38
1E78
1E70
0FF0
0FF0
07E0
07E0
07C0
03C0
0380
ENDCHAR
STARTCHAR F6C3
ENCODING 63171
SWIDTH 222 0
DWIDTH 8 0
BBX 4 6 1 -8
BITMAP
70
70
70
70
E0
E0
ENDCHAR
STARTCHAR F6C9
ENCODING 63177
SWIDTH 472 0
DWIDTH 17 0
BBX 7 4 7 26
BITMAP
1E
38
70
E0
ENDCHAR
STARTCHAR F6CA
ENCODING 63178
SWIDTH 416 0
DWIDTH 15 0
BBX 10 4 3 26
BITMAP
E1C0
7380
3F00
1E00
ENDCHAR
STARTCHAR F6CB
ENCODING 63179
SWIDTH 388 0
DWIDTH 14 0
BBX 7 3 3 27
BITMAP
C6
C6
C6
ENDCHAR
STARTCHAR F6CE
ENCODING 63182
SWIDTH 361 0
DWIDTH 13 0
BBX 7 4 3 26
BITMAP
F0
38
1C
0E
ENDCHAR
STARTCHAR F6CF
ENCODING 63183
SWIDTH 472 0
DWIDTH 17 0
BBX 10 4 3 26
BITMAP
1CC0
39C0
7380
E700
ENDCHAR
STARTCHAR F6D0
ENCODING 63184
SWIDTH 388 0
DWIDTH 14 0
BBX 8 2 3 28
BITMAP
FF
FF
ENDCHAR
STARTCHAR FB01
ENCODING 64257
SWIDTH 472 0
DWIDTH 17 0
BBX 12 25 2 0
BITMAP
3FF0
7FF0
FFF0
E000
E000
E000
E000
FFF0
FFF0
FFF0
E070
E070
E070
E070
E070
E070
E070
E070
E070
E070
E070
E070
E070
E070
E070
ENDCHAR
STARTCHAR FB02
ENCODING 64258
SWIDTH 472 0
DWIDTH 17 0
BBX 12 25 2 0
BITMAP
3E70
7E70
FE70
E070
E070
E070
E070
FFF0
FFF0
FFF0
E070
E070
E070
E070
E070
E070
E070
E070
E070
E070
E070
E070
E070
E070
E070
ENDCHAR
ENDFONT
